<svg width="59" height="59" viewBox="0 0 59 59" fill="none" xmlns="http://www.w3.org/2000/svg">
<circle cx="29.5" cy="29.5" r="29.5" fill="#2BD790"/>
<path d="M38.4795 30.5373C37.1238 29.5631 35.6479 28.8133 34.0931 28.3011C36.1603 26.7491 37.5 24.2781 37.5 21.5C37.5 16.8131 33.6869 13 29 13C24.313 13 20.5 16.8131 20.5 21.5C20.5 24.2815 21.843 26.7553 23.9145 28.3069C22.0165 28.9318 20.2356 29.9041 18.6769 31.1863C15.8186 33.5373 13.8313 36.8166 13.0811 40.4202C12.846 41.5493 13.1277 42.7091 13.8538 43.6019C14.5764 44.4904 15.6478 45 16.7933 45H29.6875C30.3779 45 30.9375 44.4404 30.9375 43.75C30.9375 43.0596 30.3779 42.5 29.6875 42.5H16.7933C16.2597 42.5 15.9377 42.2021 15.7934 42.0246C15.544 41.7181 15.4475 41.319 15.5286 40.9297C16.8259 34.6988 22.3218 30.1471 28.6686 29.9936C28.7785 29.9979 28.889 30 29 30C29.1117 30 29.223 29.9978 29.3338 29.9935C32.1129 30.0593 34.764 30.9458 37.0205 32.5674C37.5811 32.9703 38.3622 32.8423 38.7651 32.2818C39.168 31.7212 39.0401 30.9401 38.4795 30.5373ZM29.3043 27.4924C29.203 27.4905 29.1015 27.4896 29 27.4896C28.8991 27.4896 28.7982 27.4906 28.6975 27.4924C25.529 27.3344 23 24.707 23 21.5C23 18.1916 25.6915 15.5 29 15.5C32.3084 15.5 35 18.1916 35 21.5C35 24.7064 32.4719 27.3334 29.3043 27.4924Z" fill="white"/>
<path d="M41.4553 39.6871L44.6339 36.5085C45.1221 36.0203 45.1221 35.2288 44.6339 34.7407C44.1457 34.2525 43.3543 34.2525 42.8661 34.7407L39.6875 37.9193L36.5089 34.7407C36.0207 34.2525 35.2293 34.2525 34.7411 34.7407C34.253 35.2288 34.253 36.0203 34.7411 36.5085L37.9197 39.6871L34.7411 42.8657C34.253 43.3539 34.253 44.1454 34.7411 44.6335C34.9852 44.8776 35.3051 44.9996 35.625 44.9996C35.945 44.9996 36.2648 44.8776 36.5089 44.6335L39.6875 41.4549L42.8661 44.6335C43.1102 44.8776 43.4301 44.9996 43.75 44.9996C44.07 44.9996 44.3898 44.8776 44.6339 44.6335C45.1221 44.1454 45.1221 43.3539 44.6339 42.8657L41.4553 39.6871Z" fill="white"/>
</svg>
