<svg width="30" height="30" viewBox="0 0 30 30" fill="none" xmlns="http://www.w3.org/2000/svg">
<path d="M10 13.7692H6.625V10.3077H4.375V13.7692H1V16.0769H4.375V19.5385H6.625V16.0769H10V13.7692ZM21.25 14.9231C23.1175 14.9231 24.6137 13.3769 24.6137 11.4615C24.6137 9.54615 23.1175 8 21.25 8C20.89 8 20.5413 8.05769 20.2263 8.16154C20.8675 9.09615 21.2387 10.2269 21.2387 11.4615C21.2387 12.6962 20.8563 13.8154 20.2263 14.7615C20.5413 14.8654 20.89 14.9231 21.25 14.9231ZM15.625 14.9231C17.4925 14.9231 18.9887 13.3769 18.9887 11.4615C18.9887 9.54615 17.4925 8 15.625 8C13.7575 8 12.25 9.54615 12.25 11.4615C12.25 13.3769 13.7575 14.9231 15.625 14.9231ZM23.0725 17.4154C24.0063 18.2577 24.625 19.3308 24.625 20.6923V23H28V20.6923C28 18.9154 25.3338 17.8192 23.0725 17.4154ZM15.625 17.2308C13.375 17.2308 8.875 18.3846 8.875 20.6923V23H22.375V20.6923C22.375 18.3846 17.875 17.2308 15.625 17.2308Z" fill="#58595B"/>
</svg>
