<svg width="28" height="28" viewBox="0 0 28 28" fill="none" xmlns="http://www.w3.org/2000/svg">
<path d="M11.7045 14.0051L20.6195 5.02634C20.865 4.77971 21 4.44995 21 4.09834C21 3.74653 20.865 3.41697 20.6195 3.16995L19.8383 2.38361C19.5932 2.13619 19.2656 2 18.9165 2C18.5673 2 18.2401 2.13619 17.9948 2.38361L7.38013 13.0736C7.13388 13.3214 6.99904 13.6525 7.00001 14.0045C6.99904 14.358 7.13369 14.6888 7.38013 14.9368L17.9849 25.6164C18.2302 25.8638 18.5575 26 18.9068 26C19.2559 26 19.5831 25.8638 19.8286 25.6164L20.6096 24.83C21.1178 24.3182 21.1178 23.4851 20.6096 22.9735L11.7045 14.0051Z" fill="#302550"/>
</svg>
