<svg width="32" height="32" viewBox="0 0 32 32" fill="none" xmlns="http://www.w3.org/2000/svg">
<path d="M3 13.5093C3 11.8115 3.33256 10.1885 3.99768 8.64015C4.6628 7.09183 5.55857 5.76241 6.68499 4.6519C7.8114 3.54138 9.14969 2.6551 10.6998 1.99306C12.25 1.33102 13.8726 1 15.5676 1C17.2733 1 18.9012 1.33102 20.4514 1.99306C22.0015 2.6551 23.3372 3.54405 24.4582 4.6599C25.5793 5.77576 26.4723 7.10518 27.1375 8.64816C27.8026 10.1911 28.1351 11.8115 28.1351 13.5093C28.1351 16.275 27.3118 18.7443 25.6651 20.9172C24.0184 23.0902 21.8969 24.5771 19.3008 25.378V31H12.0274V25.4421C9.37765 24.6733 7.21065 23.189 5.52639 20.9893C3.84213 18.7896 3 16.2963 3 13.5093ZM5.76776 13.5093C5.76776 16.1575 6.73326 18.4319 8.66426 20.3326C10.5738 22.244 12.8749 23.1997 15.5676 23.1997C17.3377 23.1997 18.9763 22.7672 20.4836 21.9023C21.9908 21.0374 23.1843 19.8601 24.064 18.3705C24.9436 16.8809 25.3835 15.2605 25.3835 13.5093C25.3835 12.1959 25.1233 10.9386 24.603 9.73732C24.0827 8.53604 23.3827 7.50027 22.5031 6.63001C21.6234 5.75974 20.5774 5.06567 19.3652 4.54778C18.153 4.0299 16.8871 3.77096 15.5676 3.77096C14.2481 3.77096 12.9849 4.0299 11.778 4.54778C10.5711 5.06567 9.52784 5.75974 8.64817 6.63001C7.76849 7.50027 7.0685 8.53604 6.54821 9.73732C6.02791 10.9386 5.76776 12.1959 5.76776 13.5093ZM6.76544 14.118V12.8847H10.4826V14.118H6.76544ZM8.63207 8.07955L9.53321 7.19861L12.1401 9.79338L11.255 10.6903L8.63207 8.07955ZM12.9768 16.5045C12.9768 15.7891 13.2262 15.1698 13.7251 14.6466C14.2239 14.1233 14.8327 13.851 15.5515 13.8297L20.2341 6.1575L21.3606 6.75013L17.9009 14.9989C18.2012 15.4261 18.3514 15.9279 18.3514 16.5045C18.3514 17.252 18.0886 17.8847 17.5629 18.4026C17.0373 18.9204 16.399 19.1794 15.648 19.1794C14.9078 19.1794 14.2776 18.9204 13.7573 18.4026C13.237 17.8847 12.9768 17.252 12.9768 16.5045ZM15.2296 8.52803V4.82808H16.4204V8.52803H15.2296ZM20.2663 14.102V12.8366H23.9835V14.102H20.2663Z" fill="#7FBA00"/>
</svg>
