<svg width="32" height="32" viewBox="0 0 32 32" fill="none" xmlns="http://www.w3.org/2000/svg">
<path d="M17.5471 20.4727V7.13635C17.5471 6.77469 17.4035 6.42784 17.1477 6.17211C16.892 5.91638 16.5452 5.77271 16.1835 5.77271C15.8218 5.77271 15.475 5.91638 15.2193 6.17211C14.9635 6.42784 14.8199 6.77469 14.8199 7.13635V20.4727C14.4077 20.7106 14.0649 21.0523 13.8257 21.4638C13.5865 21.8753 13.4591 22.3422 13.4562 22.8181C13.4562 23.5414 13.7436 24.2351 14.255 24.7466C14.7665 25.258 15.4602 25.5454 16.1835 25.5454C16.9068 25.5454 17.6005 25.258 18.112 24.7466C18.6234 24.2351 18.9108 23.5414 18.9108 22.8181C18.9079 22.3422 18.7805 21.8753 18.5413 21.4638C18.3021 21.0523 17.9593 20.7106 17.5471 20.4727ZM22.3198 17.3636V7.13635C22.3198 5.50889 21.6733 3.94808 20.5225 2.79729C19.3718 1.64651 17.811 1 16.1835 1C14.556 1 12.9952 1.64651 11.8444 2.79729C10.6937 3.94808 10.0471 5.50889 10.0471 7.13635V17.3636C9.10467 18.4316 8.45733 19.7271 8.16917 21.1221C7.88102 22.517 7.96202 23.963 8.40418 25.3171C8.84634 26.6711 9.63433 27.8862 10.6902 28.8423C11.7461 29.7983 13.0333 30.4621 14.4244 30.7681C15.0023 30.8998 15.5912 30.9774 16.1835 30.9999C17.7662 31.0073 19.317 30.5555 20.648 29.6992C21.9791 28.8429 23.0332 27.619 23.6827 26.1757C24.3322 24.7324 24.5491 23.1318 24.3072 21.5677C24.0653 20.0036 23.375 18.5432 22.3198 17.3636V17.3636ZM19.5926 27.0045C18.8743 27.5884 18.0193 27.98 17.108 28.1423C16.1967 28.3046 15.259 28.2323 14.3834 27.9322C13.5077 27.6322 12.7228 27.1142 12.1026 26.427C11.4823 25.7399 11.0472 24.9062 10.8381 24.0045C10.6274 23.093 10.6547 22.1426 10.9174 21.2446C11.1801 20.3467 11.6693 19.5315 12.3381 18.8772C12.4669 18.7509 12.5694 18.6003 12.6396 18.4341C12.7098 18.2679 12.7464 18.0895 12.7471 17.909V7.13635C12.7471 6.2322 13.1063 5.36509 13.7456 4.72576C14.385 4.08643 15.2521 3.72726 16.1562 3.72726C17.0604 3.72726 17.9275 4.08643 18.5668 4.72576C19.2061 5.36509 19.5653 6.2322 19.5653 7.13635V17.9636C19.566 18.144 19.6026 18.3225 19.6728 18.4887C19.743 18.6549 19.8455 18.8055 19.9744 18.9318C20.5318 19.4702 20.968 20.1213 21.2541 20.8416C21.5401 21.5619 21.6693 22.3348 21.6332 23.109C21.5971 23.8831 21.3964 24.6407 21.0445 25.3312C20.6927 26.0217 20.1977 26.6293 19.5926 27.1136V27.0045Z" fill="#00AEE8"/>
</svg>
