<svg width="24" height="24" viewBox="0 0 24 24" fill="none" xmlns="http://www.w3.org/2000/svg">
<g clip-path="url(#clip0)">
<path d="M15.3101 8.69482C14.9997 8.69482 14.748 8.94643 14.748 9.25689V19.8798C14.748 20.1901 14.9997 20.4419 15.3101 20.4419C15.6206 20.4419 15.8722 20.1901 15.8722 19.8798V9.25689C15.8722 8.94643 15.6206 8.69482 15.3101 8.69482Z" fill="#EC008C"/>
<path d="M8.67827 8.69482C8.36782 8.69482 8.11621 8.94643 8.11621 9.25689V19.8798C8.11621 20.1901 8.36782 20.4419 8.67827 20.4419C8.98872 20.4419 9.24033 20.1901 9.24033 19.8798V9.25689C9.24033 8.94643 8.98872 8.69482 8.67827 8.69482Z" fill="#EC008C"/>
<path d="M3.84439 7.14454V20.9925C3.84439 21.811 4.14452 22.5797 4.66881 23.1312C5.19069 23.6842 5.91698 23.9982 6.67708 23.9995H17.3114C18.0717 23.9982 18.798 23.6842 19.3197 23.1312C19.844 22.5797 20.1441 21.811 20.1441 20.9925V7.14454C21.1863 6.86791 21.8617 5.86103 21.7223 4.79158C21.5826 3.72235 20.6717 2.92251 19.5932 2.92229H16.7155V2.21972C16.7188 1.6289 16.4852 1.06157 16.067 0.644197C15.6487 0.227044 15.0805 -0.00524463 14.4897 -0.000414431H9.49879C8.90797 -0.00524463 8.33976 0.227044 7.92151 0.644197C7.50326 1.06157 7.26965 1.6289 7.27295 2.21972V2.92229H4.39525C3.3168 2.92251 2.40587 3.72235 2.26623 4.79158C2.12681 5.86103 2.80216 6.86791 3.84439 7.14454V7.14454ZM17.3114 22.8754H6.67708C5.71609 22.8754 4.9685 22.0499 4.9685 20.9925V7.19394H19.02V20.9925C19.02 22.0499 18.2724 22.8754 17.3114 22.8754ZM8.39707 2.21972C8.39333 1.92705 8.50838 1.64537 8.71608 1.43876C8.92356 1.23216 9.2059 1.11865 9.49879 1.1237H14.4897C14.7826 1.11865 15.0649 1.23216 15.2724 1.43876C15.4801 1.64515 15.5952 1.92705 15.5914 2.21972V2.92229H8.39707V2.21972ZM4.39525 4.04641H19.5932C20.152 4.04641 20.6049 4.49935 20.6049 5.05812C20.6049 5.61688 20.152 6.06982 19.5932 6.06982H4.39525C3.83648 6.06982 3.38354 5.61688 3.38354 5.05812C3.38354 4.49935 3.83648 4.04641 4.39525 4.04641V4.04641Z" fill="#EC008C"/>
<path d="M11.9947 8.69482C11.6842 8.69482 11.4326 8.94643 11.4326 9.25689V19.8798C11.4326 20.1901 11.6842 20.4419 11.9947 20.4419C12.3051 20.4419 12.5567 20.1901 12.5567 19.8798V9.25689C12.5567 8.94643 12.3051 8.69482 11.9947 8.69482Z" fill="#EC008C"/>
</g>
<defs>
<clipPath id="clip0">
<path d="M0 0H24V24H0V0Z" fill="white"/>
</clipPath>
</defs>
</svg>
