<svg width="28" height="28" viewBox="0 0 28 28" fill="none" xmlns="http://www.w3.org/2000/svg">
<path d="M23.2021 2.96443C21.9144 1.67852 19.8291 1.67852 18.5414 2.96443L17.3746 4.13827L4.95538 16.5555L4.92886 16.5818C4.92242 16.5885 4.92242 16.5952 4.91572 16.5952C4.89847 16.6132 4.88302 16.633 4.86963 16.6544C4.8565 16.6743 4.84337 16.7005 4.82998 16.7204C4.82946 16.7253 4.82714 16.7299 4.82354 16.7335C4.81684 16.7533 4.80371 16.7732 4.79702 16.793C4.79702 16.7995 4.79702 16.7995 4.79058 16.8061L2.03507 25.0952C1.95421 25.3312 2.01575 25.5926 2.19317 25.7678C2.31806 25.8909 2.48621 25.9597 2.66131 25.9592C2.73289 25.9579 2.8037 25.9466 2.8722 25.9262L11.1519 23.163C11.1583 23.163 11.1583 23.163 11.1583 23.1566C11.1794 23.1504 11.1992 23.1416 11.2178 23.13C11.2227 23.1293 11.2273 23.1269 11.2309 23.1236C11.2786 23.1012 11.3231 23.0723 11.3628 23.0378C11.3695 23.0311 11.3759 23.0311 11.3759 23.0247C11.3826 23.018 11.3957 23.0113 11.4024 22.9982L23.8217 10.5876L24.9951 9.41376C26.2805 8.1258 26.2805 6.03956 24.9951 4.7516L23.2021 2.96443ZM3.7029 24.2642L5.70676 18.2438L9.71476 22.2529L3.7029 24.2642ZM10.941 21.6133L6.35283 17.0238L17.8361 5.53623L22.4242 10.126L10.941 21.6133ZM24.0655 8.48411L23.3602 9.18966L18.7721 4.59988L19.4776 3.89433C20.2496 3.12284 21.5006 3.12284 22.2725 3.89433L24.0655 5.68795C24.8303 6.46304 24.8303 7.70902 24.0655 8.48411Z" fill="#302550"/>
</svg>
