<svg width="36" height="36" viewBox="0 0 36 36" fill="none" xmlns="http://www.w3.org/2000/svg">
<circle cx="18" cy="18" r="18" fill="url(#paint0_linear)"/>
<path d="M24.9287 9.72455C23.9612 8.75848 22.3946 8.75848 21.4272 9.72455L20.5506 10.6064L11.2203 19.9352L11.2004 19.955C11.1955 19.96 11.1955 19.965 11.1905 19.965C11.1776 19.9786 11.1659 19.9935 11.1559 20.0095C11.146 20.0244 11.1362 20.0442 11.1261 20.0591C11.1257 20.0628 11.124 20.0662 11.1213 20.069C11.1162 20.0839 11.1064 20.0988 11.1013 20.1137C11.1013 20.1185 11.1013 20.1185 11.0965 20.1235L9.02634 26.3509C8.9656 26.5282 9.01183 26.7246 9.14512 26.8562C9.23895 26.9487 9.36528 27.0004 9.49682 27C9.55061 26.999 9.60381 26.9905 9.65526 26.9752L15.8756 24.8993C15.8804 24.8993 15.8804 24.8993 15.8804 24.8945C15.8963 24.8898 15.9112 24.8832 15.9251 24.8745C15.9288 24.874 15.9323 24.8722 15.935 24.8697C15.9708 24.8529 16.0042 24.8312 16.034 24.8052C16.0391 24.8002 16.0439 24.8002 16.0439 24.7954C16.0489 24.7903 16.0588 24.7853 16.0638 24.7754L25.3941 15.4517L26.2757 14.5698C27.2414 13.6022 27.2414 12.0348 26.2757 11.0672L24.9287 9.72455ZM10.2793 25.7266L11.7848 21.2036L14.7959 24.2156L10.2793 25.7266ZM15.7172 23.7351L12.2702 20.2871L20.8973 11.6567L24.3443 15.1049L15.7172 23.7351ZM25.5773 13.8714L25.0475 14.4014L21.6005 10.9532L22.1306 10.4232C22.7105 9.84357 23.6503 9.84357 24.2303 10.4232L25.5773 11.7707C26.1519 12.353 26.1519 13.2891 25.5773 13.8714V13.8714Z" fill="white"/>
<defs>
<linearGradient id="paint0_linear" x1="1.26349e-06" y1="-5.5" x2="50" y2="47" gradientUnits="userSpaceOnUse">
<stop offset="0.116982" stop-color="#302550"/>
<stop offset="1" stop-color="#EE008C"/>
</linearGradient>
</defs>
</svg>
