<svg width="24" height="24" viewBox="0 0 24 24" fill="none" xmlns="http://www.w3.org/2000/svg">
<path d="M19.6985 2.80506C18.6236 1.73165 16.8829 1.73165 15.808 2.80506L14.834 3.78493L4.46701 14.1503L4.44487 14.1722C4.4395 14.1778 4.4395 14.1834 4.43391 14.1834C4.41951 14.1984 4.40661 14.215 4.39543 14.2328C4.38447 14.2494 4.37351 14.2713 4.36233 14.2879C4.3619 14.292 4.35997 14.2958 4.35696 14.2988C4.35137 14.3154 4.34041 14.332 4.33482 14.3485C4.33482 14.3539 4.33482 14.3539 4.32944 14.3595L2.02927 21.2788C1.96178 21.4758 2.01315 21.694 2.16125 21.8402C2.2655 21.943 2.40586 22.0004 2.55203 22C2.61178 21.9989 2.67089 21.9895 2.72807 21.9725L9.63955 19.6659C9.64493 19.6659 9.64493 19.6659 9.64493 19.6605C9.66255 19.6554 9.6791 19.648 9.69458 19.6384C9.69866 19.6377 9.70253 19.6358 9.70554 19.633C9.74531 19.6143 9.78249 19.5902 9.8156 19.5614C9.82118 19.5558 9.82656 19.5558 9.82656 19.5504C9.83215 19.5448 9.84311 19.5392 9.8487 19.5283L20.2157 9.16854L21.1952 8.18866C22.2683 7.11353 22.2683 5.37204 21.1952 4.29691L19.6985 2.80506ZM3.4215 20.5851L5.09423 15.5595L8.43992 18.9062L3.4215 20.5851ZM9.46351 18.3723L5.63354 14.5412L15.2192 4.95188L19.0492 8.78321L9.46351 18.3723ZM20.4193 7.41263L19.8305 8.00159L16.0005 4.17026L16.5895 3.5813C17.2339 2.9373 18.2782 2.9373 18.9226 3.5813L20.4193 5.07853C21.0577 5.72554 21.0577 6.76562 20.4193 7.41263V7.41263Z" fill="#EC008C"/>
</svg>
