<svg width="24" height="24" viewBox="0 0 24 24" fill="none" xmlns="http://www.w3.org/2000/svg">
<path d="M9 12.0077C9 13.3838 10.1272 14.5097 11.505 14.5097C12.8827 14.5097 14.01 13.3838 14.01 12.0077C14.01 10.6316 12.8827 9.50571 11.505 9.50572C10.1272 9.50572 9 10.6316 9 12.0077ZM9 4.50175C9 5.87784 10.1272 7.00373 11.505 7.00373C12.8827 7.00373 14.01 5.87784 14.01 4.50175C14.01 3.12566 12.8827 1.99977 11.505 1.99977C10.1272 1.99977 9 3.12566 9 4.50175ZM9 19.5136C9 20.8897 10.1273 22.0156 11.505 22.0156C12.8828 22.0156 14.01 20.8897 14.01 19.5136C14.01 18.1376 12.8827 17.0117 11.505 17.0117C10.1272 17.0117 9 18.1376 9 19.5136Z" fill="#302550"/>
</svg>
