<svg width="245" height="63" viewBox="0 0 245 63" fill="none" xmlns="http://www.w3.org/2000/svg">
<path d="M25.9174 60.1465C25.9174 61.2242 25.045 62.1479 23.916 62.1479C22.8383 62.1479 21.9658 61.2242 21.9658 60.1465V33.8708C21.9658 32.7931 22.8383 31.8693 23.916 31.8693C25.045 31.8693 25.9174 32.7931 25.9174 33.8708V35.2564C27.2517 32.9984 30.1256 31.6641 32.9482 31.6641C38.4394 31.6641 43.0069 35.821 43.0069 42.2359C43.0069 48.5995 38.4394 52.6538 32.9482 52.6538C30.1256 52.6538 27.2517 51.5248 25.9174 49.2154V60.1465V60.1465ZM32.5377 48.8561C36.1814 48.8561 39.0553 46.2902 39.0553 42.2872C39.0553 38.2843 36.1814 35.513 32.5377 35.513C28.9966 35.513 25.9688 38.0277 25.9688 42.2872C25.9688 46.5981 29.3045 48.8561 32.5377 48.8561Z" fill="#F6F6F7"/>
<path d="M53.937 35.4617C50.0367 35.4617 48.4457 39.6186 48.4457 44.9558V50.4983C48.4457 51.576 47.5733 52.4998 46.4443 52.4998C45.3666 52.4998 44.4941 51.576 44.4941 50.4983V33.9221C44.4941 32.8444 45.3666 31.9206 46.4443 31.9206C47.5733 31.9206 48.4457 32.8444 48.4457 33.9221V36.6933C49.4721 33.1523 51.4223 31.7153 54.0396 31.7153C55.5279 31.7153 57.9399 32.0232 57.5807 34.1274C57.3754 35.359 56.2463 35.6156 54.8607 35.513C54.5528 35.4617 54.1936 35.4617 53.937 35.4617Z" fill="#F6F6F7"/>
<path d="M74.4143 43.6728H59.5829C60.0448 47.0086 62.6621 49.164 66.1005 49.164C68.5125 49.164 69.8468 48.5482 71.2325 47.0599C71.9509 46.2388 73.08 45.9822 73.8498 46.5467C74.6196 47.1625 74.7735 48.2916 74.209 49.0101C72.2589 51.5247 69.231 52.7051 65.9979 52.7051C60.2501 52.7051 55.6826 48.5482 55.6826 42.1332C55.6826 35.7696 60.2501 31.7153 65.9979 31.7153C71.7457 31.7153 76.0052 35.7696 76.0052 42.1332C75.9539 43.0056 75.2354 43.6728 74.4143 43.6728ZM72.1049 40.5936C71.643 37.2579 69.231 35.2051 65.9979 35.2051C62.6621 35.2051 60.0961 37.2065 59.6342 40.5936H72.1049Z" fill="#F6F6F7"/>
<path d="M94.2756 23.6582C94.2756 22.5805 95.1481 21.6567 96.2771 21.6567C97.3548 21.6567 98.2272 22.5805 98.2272 23.6582V50.4471C98.2272 51.5248 97.3548 52.4485 96.2771 52.4485C95.1481 52.4485 94.2756 51.5248 94.2756 50.4471V49.1641C92.9413 51.4221 90.0674 52.7051 87.2448 52.7051C81.7536 52.7051 77.0322 48.5482 77.0322 42.1846C77.0322 35.7696 81.651 31.7154 87.1935 31.7154C90.1187 31.7154 92.9413 32.8957 94.2756 35.1538V23.6582V23.6582ZM87.5528 35.513C83.9091 35.513 81.0352 38.079 81.0352 42.082C81.0352 46.0336 83.9091 48.8048 87.5528 48.8048C91.1451 48.8048 94.2243 46.3415 94.2243 42.082C94.2756 37.8224 90.7859 35.513 87.5528 35.513Z" fill="#F6F6F7"/>
<path d="M104.898 33.8711C104.898 32.7934 104.025 31.8696 102.896 31.8696C101.819 31.8696 100.946 32.7934 100.946 33.8711V50.4473C100.946 51.5251 101.819 52.4488 102.896 52.4488C104.025 52.4488 104.898 51.5251 104.898 50.4473V33.8711Z" fill="#F6F6F7"/>
<path d="M123.938 49.164C122.604 51.4221 119.679 52.7051 116.856 52.7051C111.365 52.7051 106.644 48.5482 106.644 42.1845C106.644 35.7696 111.365 31.7153 116.856 31.7153C119.679 31.7153 122.604 32.8957 123.938 35.1537V33.9221C123.938 32.8444 124.811 31.9206 125.888 31.9206C127.017 31.9206 127.89 32.8444 127.89 33.9221V50.4983C127.89 51.576 127.017 52.4998 125.888 52.4998C124.811 52.4998 123.938 51.576 123.938 50.4983V49.164ZM117.267 35.513C113.623 35.513 110.698 38.079 110.698 42.0819C110.698 46.0335 113.623 48.8048 117.267 48.8048C120.859 48.8048 123.938 46.3414 123.938 42.0819C123.938 37.8224 120.449 35.513 117.267 35.513Z" fill="#F6F6F7"/>
<path d="M18.7317 43.6728H3.9003C4.36217 47.0086 6.97947 49.164 10.4179 49.164C12.8299 49.164 14.1642 48.5482 15.5499 47.0599C16.2683 46.2388 17.3974 45.9822 18.1672 46.5467C18.9369 47.1625 19.0909 48.2916 18.5264 49.0101C16.5762 51.5247 13.5484 52.7051 10.3153 52.7051C4.56745 52.7051 0 48.5482 0 42.1332C0 35.7696 4.56745 31.7153 10.3153 31.7153C16.0631 31.7153 20.3226 35.7696 20.3226 42.1332C20.3226 43.0056 19.5528 43.6728 18.7317 43.6728ZM16.4223 40.5936C15.9604 37.2579 13.5484 35.2051 10.3153 35.2051C6.97948 35.2051 4.41349 37.2065 3.95161 40.5936H16.4223Z" fill="#F6F6F7"/>
<path d="M80.0064 30.0734C81.9905 30.0734 83.5988 28.4651 83.5988 26.481C83.5988 24.497 81.9905 22.8887 80.0064 22.8887C78.0224 22.8887 76.4141 24.497 76.4141 26.481C76.4141 28.4651 78.0224 30.0734 80.0064 30.0734Z" fill="#FDFDFD"/>
<path d="M88.628 29.0979C90.0735 29.0979 91.2453 27.9261 91.2453 26.4806C91.2453 25.0351 90.0735 23.8633 88.628 23.8633C87.1826 23.8633 86.0107 25.0351 86.0107 26.4806C86.0107 27.9261 87.1826 29.0979 88.628 29.0979Z" fill="#FDFDFD"/>
<path d="M125.783 30.0729C127.767 30.0729 129.375 28.4646 129.375 26.4806C129.375 24.4965 127.767 22.8882 125.783 22.8882C123.799 22.8882 122.19 24.4965 122.19 26.4806C122.19 28.4646 123.799 30.0729 125.783 30.0729Z" fill="#FDFDFD"/>
<path d="M117.212 29.0979C118.658 29.0979 119.829 27.9261 119.829 26.4806C119.829 25.0351 118.658 23.8633 117.212 23.8633C115.767 23.8633 114.595 25.0351 114.595 26.4806C114.595 27.9261 115.767 29.0979 117.212 29.0979Z" fill="#FDFDFD"/>
<path d="M122.757 18.6286C124.741 18.6286 126.35 17.0202 126.35 15.0362C126.35 13.0522 124.741 11.4438 122.757 11.4438C120.773 11.4438 119.165 13.0522 119.165 15.0362C119.165 17.0202 120.773 18.6286 122.757 18.6286Z" fill="#FDFDFD"/>
<path d="M115.263 21.9641C116.708 21.9641 117.88 20.7923 117.88 19.3468C117.88 17.9013 116.708 16.7295 115.263 16.7295C113.817 16.7295 112.646 17.9013 112.646 19.3468C112.646 20.7923 113.817 21.9641 115.263 21.9641Z" fill="#FDFDFD"/>
<path d="M108.952 24.9412C110 24.9412 110.85 24.0911 110.85 23.0424C110.85 21.9937 110 21.1436 108.952 21.1436C107.903 21.1436 107.053 21.9937 107.053 23.0424C107.053 24.0911 107.903 24.9412 108.952 24.9412Z" fill="#FDFDFD"/>
<path d="M114.339 10.2639C116.323 10.2639 117.932 8.65549 117.932 6.67148C117.932 4.68746 116.323 3.0791 114.339 3.0791C112.355 3.0791 110.747 4.68746 110.747 6.67148C110.747 8.65549 112.355 10.2639 114.339 10.2639Z" fill="#FDFDFD"/>
<path d="M110.028 16.7302C111.474 16.7302 112.646 15.5584 112.646 14.1129C112.646 12.6674 111.474 11.4956 110.028 11.4956C108.583 11.4956 107.411 12.6674 107.411 14.1129C107.411 15.5584 108.583 16.7302 110.028 16.7302Z" fill="#FDFDFD"/>
<path d="M102.895 7.18475C104.879 7.18475 106.487 5.57639 106.487 3.59238C106.487 1.60836 104.879 0 102.895 0C100.911 0 99.3027 1.60836 99.3027 3.59238C99.3027 5.57639 100.911 7.18475 102.895 7.18475Z" fill="#FDFDFD"/>
<path d="M102.895 14.8313C104.34 14.8313 105.512 13.6595 105.512 12.214C105.512 10.7685 104.34 9.59668 102.895 9.59668C101.449 9.59668 100.277 10.7685 100.277 12.214C100.277 13.6595 101.449 14.8313 102.895 14.8313Z" fill="#FDFDFD"/>
<path d="M102.896 21.4519C103.945 21.4519 104.795 20.6018 104.795 19.5531C104.795 18.5044 103.945 17.6543 102.896 17.6543C101.847 17.6543 100.997 18.5044 100.997 19.5531C100.997 20.6018 101.847 21.4519 102.896 21.4519Z" fill="#FDFDFD"/>
<path d="M91.4508 10.2639C93.4348 10.2639 95.0431 8.65549 95.0431 6.67148C95.0431 4.68746 93.4348 3.0791 91.4508 3.0791C89.4668 3.0791 87.8584 4.68746 87.8584 6.67148C87.8584 8.65549 89.4668 10.2639 91.4508 10.2639Z" fill="#FDFDFD"/>
<path d="M95.7618 16.7302C97.2073 16.7302 98.3791 15.5584 98.3791 14.1129C98.3791 12.6674 97.2073 11.4956 95.7618 11.4956C94.3163 11.4956 93.1445 12.6674 93.1445 14.1129C93.1445 15.5584 94.3163 16.7302 95.7618 16.7302Z" fill="#FDFDFD"/>
<path d="M83.0865 18.6286C85.0705 18.6286 86.6789 17.0202 86.6789 15.0362C86.6789 13.0522 85.0705 11.4438 83.0865 11.4438C81.1025 11.4438 79.4941 13.0522 79.4941 15.0362C79.4941 17.0202 81.1025 18.6286 83.0865 18.6286Z" fill="#FDFDFD"/>
<path d="M90.5275 21.9641C91.973 21.9641 93.1448 20.7923 93.1448 19.3468C93.1448 17.9013 91.973 16.7295 90.5275 16.7295C89.082 16.7295 87.9102 17.9013 87.9102 19.3468C87.9102 20.7923 89.082 21.9641 90.5275 21.9641Z" fill="#FDFDFD"/>
<path d="M102.946 29.611C104.647 29.611 106.026 28.2324 106.026 26.5318C106.026 24.8312 104.647 23.4526 102.946 23.4526C101.246 23.4526 99.8672 24.8312 99.8672 26.5318C99.8672 28.2324 101.246 29.611 102.946 29.611Z" fill="#EC008C"/>
<path d="M141.231 32.1772H147.544V33.0497H142.309V35.5643H147.236V36.4368H142.309V39.516H147.749V40.3884H141.283V32.1772H141.231Z" fill="#F7F7F7"/>
<path d="M148.466 34.2301H149.441V35.3078C149.851 34.538 150.673 34.1274 151.596 34.1274C153.136 34.1274 153.854 35.0512 153.854 36.6934V40.4911H152.879V36.8474C152.879 35.7184 152.469 35.1025 151.34 35.1025C150.211 35.1025 149.441 35.975 149.441 37.0013V40.4911H148.466V34.2301Z" fill="#F7F7F7"/>
<path d="M154.881 32.0747H155.856V35.3078C156.267 34.5381 157.088 34.1275 158.011 34.1275C159.551 34.1275 160.269 35.0512 160.269 36.6935V40.4911H159.294V36.8474C159.294 35.7184 158.832 35.1026 157.703 35.1026C156.574 35.1026 155.856 36.0263 155.856 37.0014V40.5424H154.881V32.0747V32.0747Z" fill="#F7F7F7"/>
<path d="M161.039 37.3606C161.039 35.5131 162.271 34.1274 163.964 34.1274C164.939 34.1274 165.863 34.538 166.325 35.3591V34.2814H167.3V40.5424H166.325V39.4134C165.863 40.2345 164.991 40.645 163.964 40.645C162.271 40.5937 161.039 39.1568 161.039 37.3606ZM166.325 37.3606C166.325 36.0776 165.401 35.0512 164.221 35.0512C162.989 35.0512 162.065 36.0263 162.065 37.3606C162.065 38.6949 162.989 39.67 164.221 39.67C165.401 39.67 166.325 38.6949 166.325 37.3606Z" fill="#F7F7F7"/>
<path d="M168.431 34.2301H169.406V35.3078C169.816 34.538 170.637 34.1274 171.561 34.1274C173.101 34.1274 173.819 35.0512 173.819 36.6934V40.4911H172.844V36.8474C172.844 35.7184 172.434 35.1025 171.305 35.1025C170.176 35.1025 169.406 35.975 169.406 37.0013V40.4911H168.431V34.2301Z" fill="#F7F7F7"/>
<path d="M174.589 37.3606C174.589 35.5644 176.026 34.1274 177.873 34.1274C178.746 34.1274 179.516 34.4354 180.08 34.9486L179.464 35.6157C179.054 35.2565 178.54 35.0512 177.873 35.0512C176.59 35.0512 175.564 36.0263 175.564 37.3606C175.564 38.6436 176.488 39.67 177.873 39.67C178.592 39.67 179.208 39.4134 179.669 38.9515L180.234 39.67C179.618 40.2345 178.797 40.5937 177.873 40.5937C176.077 40.5937 174.589 39.2081 174.589 37.3606Z" fill="#F7F7F7"/>
<path d="M180.798 32.485C180.798 32.1258 181.054 31.8179 181.465 31.8179C181.824 31.8179 182.132 32.1258 182.132 32.485C182.132 32.8443 181.824 33.1009 181.465 33.1009C181.054 33.1522 180.798 32.8443 180.798 32.485ZM180.952 34.2299H181.927V40.4909H180.952V34.2299Z" fill="#F7F7F7"/>
<path d="M183.057 34.2301H184.032V35.3078C184.442 34.538 185.263 34.1274 186.187 34.1274C187.727 34.1274 188.445 35.0512 188.445 36.6934V40.4911H187.47V36.8474C187.47 35.7184 187.06 35.1025 185.931 35.1025C184.801 35.1025 184.032 35.975 184.032 37.0013V40.4911H183.057V34.2301Z" fill="#F7F7F7"/>
<path d="M189.831 41.4662L190.241 40.8503C190.754 41.3635 191.473 41.6201 192.191 41.6201C193.269 41.6201 194.449 40.953 194.449 39.1054V38.9002C194.193 39.6186 193.32 40.1832 192.14 40.1832C190.447 40.1832 189.215 38.8489 189.215 37.1553C189.215 35.4618 190.395 34.1274 192.14 34.1274C193.218 34.1274 194.193 34.5893 194.501 35.4104V34.2814H195.425V39.1054C195.425 41.6201 193.628 42.3899 192.243 42.3899C191.268 42.3899 190.395 42.0307 189.831 41.4662ZM194.449 37.0527C194.449 35.8723 193.474 34.9486 192.294 34.9486C191.114 34.9486 190.19 35.8723 190.19 37.104C190.19 38.3357 191.114 39.2594 192.294 39.2594C193.526 39.3107 194.449 38.387 194.449 37.0527Z" fill="#F7F7F7"/>
<path d="M198.863 34.2301H199.787V35.3078C200.249 34.4867 201.173 34.1274 202.148 34.1274C203.893 34.1274 205.073 35.5644 205.073 37.3606C205.073 39.1568 203.841 40.5937 202.148 40.5937C201.173 40.5937 200.249 40.1832 199.787 39.362V42.2359H198.863V34.2301ZM204.149 37.3606C204.149 36.0263 203.225 35.0512 201.994 35.0512C200.813 35.0512 199.89 36.0263 199.89 37.3606C199.89 38.6949 200.813 39.67 201.994 39.67C203.225 39.67 204.149 38.6949 204.149 37.3606Z" fill="#F7F7F7"/>
<path d="M205.996 34.2301H206.971V35.5644C207.33 34.7433 208.152 34.1274 209.383 34.1274V35.2052C207.946 35.2052 206.971 36.0263 206.971 37.5659V40.5424H205.996V34.2301Z" fill="#F7F7F7"/>
<path d="M209.641 37.3606C209.641 35.5644 210.975 34.1274 212.771 34.1274C214.413 34.1274 215.748 35.5644 215.748 37.3606C215.748 37.5659 215.748 37.7198 215.748 37.7198H210.667C210.821 38.9515 211.796 39.7213 212.925 39.7213C213.644 39.7213 214.311 39.4647 214.824 39.0541L215.234 39.7726C214.567 40.2858 213.746 40.5937 212.874 40.5937C211.129 40.5937 209.641 39.362 209.641 37.3606ZM214.773 36.95C214.67 35.821 213.798 34.9486 212.72 34.9486C211.642 34.9486 210.77 35.7697 210.667 36.95H214.773Z" fill="#F7F7F7"/>
<path d="M216.362 37.3606C216.362 35.5644 217.799 34.1274 219.647 34.1274C220.519 34.1274 221.289 34.4354 221.854 34.9486L221.238 35.6157C220.827 35.2565 220.314 35.0512 219.647 35.0512C218.364 35.0512 217.337 36.0263 217.337 37.3606C217.337 38.6436 218.261 39.67 219.647 39.67C220.365 39.67 220.981 39.4134 221.443 38.9515L222.007 39.67C221.392 40.2345 220.571 40.5937 219.647 40.5937C217.799 40.5937 216.362 39.2081 216.362 37.3606Z" fill="#F7F7F7"/>
<path d="M222.521 32.485C222.521 32.1258 222.777 31.8179 223.188 31.8179C223.547 31.8179 223.855 32.1258 223.855 32.485C223.855 32.8443 223.547 33.1009 223.188 33.1009C222.828 33.1522 222.521 32.8443 222.521 32.485ZM222.674 34.2299H223.65V40.4909H222.674V34.2299Z" fill="#F7F7F7"/>
<path d="M224.472 39.67L224.882 38.9002C225.344 39.362 226.011 39.7213 226.935 39.7213C227.807 39.7213 228.475 39.3107 228.475 38.7462C228.475 38.0791 227.705 37.9251 226.986 37.7198C225.806 37.4119 224.78 37.104 224.78 35.9236C224.78 34.7946 225.96 34.1274 226.986 34.1274C227.859 34.1274 228.475 34.3327 229.09 34.7946L228.68 35.5644C228.167 35.2052 227.602 35.0512 226.935 35.0512C226.268 35.0512 225.703 35.4104 225.703 35.8723C225.703 36.4881 226.37 36.6421 227.14 36.7961C228.269 37.0527 229.45 37.4632 229.45 38.6949C229.45 40.0292 228.115 40.5937 226.884 40.5937C225.652 40.5937 224.831 40.0292 224.472 39.67Z" fill="#F7F7F7"/>
<path d="M230.169 32.485C230.169 32.1258 230.426 31.8179 230.836 31.8179C231.195 31.8179 231.503 32.1258 231.503 32.485C231.503 32.8443 231.195 33.1009 230.836 33.1009C230.426 33.1522 230.169 32.8443 230.169 32.485ZM230.323 34.2299H231.298V40.4909H230.323V34.2299Z" fill="#F7F7F7"/>
<path d="M232.169 37.3606C232.169 35.5644 233.606 34.1274 235.453 34.1274C237.301 34.1274 238.738 35.5644 238.738 37.3606C238.738 39.1568 237.301 40.5937 235.453 40.5937C233.606 40.5937 232.169 39.1568 232.169 37.3606ZM237.711 37.3606C237.711 36.0263 236.736 35.0512 235.453 35.0512C234.17 35.0512 233.195 36.0263 233.195 37.3606C233.195 38.6436 234.17 39.67 235.453 39.67C236.736 39.67 237.711 38.6949 237.711 37.3606Z" fill="#F7F7F7"/>
<path d="M239.61 34.2301H240.585V35.3078C240.996 34.538 241.817 34.1274 242.741 34.1274C244.28 34.1274 244.999 35.0512 244.999 36.6934V40.4911H244.024V36.8474C244.024 35.7184 243.613 35.1025 242.484 35.1025C241.355 35.1025 240.585 35.975 240.585 37.0013V40.4911H239.61V34.2301Z" fill="#F7F7F7"/>
<path d="M140.82 49.4206C140.82 47.6244 142.257 46.1875 144.105 46.1875C144.977 46.1875 145.747 46.4954 146.312 47.0086L145.696 47.6758C145.285 47.3165 144.772 47.1112 144.105 47.1112C142.822 47.1112 141.795 48.0863 141.795 49.4206C141.795 50.7036 142.719 51.73 144.105 51.73C144.823 51.73 145.439 51.4734 145.901 51.0115L146.465 51.73C145.85 52.2945 145.029 52.6538 144.105 52.6538C142.257 52.6538 140.82 51.2681 140.82 49.4206Z" fill="#F7F7F7"/>
<path d="M146.774 49.4206C146.774 47.5731 148.006 46.1875 149.7 46.1875C150.675 46.1875 151.598 46.5981 152.06 47.4192V46.3415H153.035V52.6025H152.06V51.5247C151.598 52.3459 150.726 52.7564 149.7 52.7564C147.955 52.6538 146.774 51.2168 146.774 49.4206ZM152.06 49.4206C152.06 48.1376 151.137 47.1112 149.956 47.1112C148.725 47.1112 147.801 48.0863 147.801 49.4206C147.801 50.7549 148.725 51.73 149.956 51.73C151.137 51.73 152.06 50.7549 152.06 49.4206Z" fill="#F7F7F7"/>
<path d="M154.163 46.2901H155.138V47.3678C155.549 46.5981 156.37 46.1875 157.294 46.1875C158.833 46.1875 159.552 47.1113 159.552 48.7535V52.5511H158.577V48.9074C158.577 47.7784 158.166 47.1626 157.037 47.1626C155.908 47.1626 155.138 48.035 155.138 49.0614V52.5511H154.163V46.2901Z" fill="#F7F7F7"/>
<path d="M160.322 49.4206C160.322 47.6244 161.759 46.1875 163.607 46.1875C164.479 46.1875 165.249 46.4954 165.813 47.0086L165.198 47.6758C164.787 47.3165 164.274 47.1112 163.607 47.1112C162.324 47.1112 161.297 48.0863 161.297 49.4206C161.297 50.7036 162.221 51.73 163.607 51.73C164.325 51.73 164.941 51.4734 165.403 51.0115L165.967 51.73C165.352 52.2945 164.53 52.6538 163.607 52.6538C161.759 52.6538 160.322 51.2681 160.322 49.4206Z" fill="#F7F7F7"/>
<path d="M166.275 49.4206C166.275 47.6244 167.61 46.1875 169.406 46.1875C171.048 46.1875 172.382 47.6244 172.382 49.4206C172.382 49.6259 172.382 49.7799 172.382 49.7799H167.302C167.456 51.0115 168.431 51.7813 169.56 51.7813C170.278 51.7813 170.945 51.5247 171.459 51.1142L171.869 51.8327C171.202 52.3459 170.381 52.6538 169.509 52.6538C167.764 52.6538 166.275 51.4221 166.275 49.4206ZM171.407 49.0101C171.305 47.881 170.432 47.0086 169.355 47.0086C168.277 47.0086 167.404 47.8297 167.302 49.0101H171.407Z" fill="#F7F7F7"/>
<path d="M173.254 46.2901H174.229V47.6244C174.588 46.8033 175.409 46.1875 176.641 46.1875V47.2652C175.204 47.2652 174.229 48.0863 174.229 49.6259V52.6025H173.254V46.2901Z" fill="#F7F7F7"/>
<path d="M179.31 49.4207C179.31 47.5732 180.541 46.1876 182.235 46.1876C183.21 46.1876 184.134 46.5981 184.595 47.4192V44.1348H185.571V52.5512H184.647V51.4735C184.185 52.2946 183.261 52.7051 182.286 52.7051C180.49 52.6538 179.31 51.2169 179.31 49.4207ZM184.595 49.4207C184.595 48.1377 183.672 47.1113 182.491 47.1113C181.26 47.1113 180.336 48.0864 180.336 49.4207C180.336 50.755 181.26 51.7301 182.491 51.7301C183.672 51.7301 184.595 50.755 184.595 49.4207Z" fill="#F7F7F7"/>
<path d="M186.547 44.5451C186.547 44.1858 186.803 43.8779 187.214 43.8779C187.573 43.8779 187.881 44.1858 187.881 44.5451C187.881 44.9043 187.573 45.1609 187.214 45.1609C186.803 45.2122 186.547 44.9043 186.547 44.5451ZM186.701 46.2899H187.676V52.5509H186.701V46.2899Z" fill="#F7F7F7"/>
<path d="M188.548 49.4206C188.548 47.5731 189.779 46.1875 191.473 46.1875C192.448 46.1875 193.372 46.5981 193.834 47.4192V46.3415H194.809V52.6025H193.834V51.5247C193.372 52.3459 192.499 52.7564 191.473 52.7564C189.779 52.6538 188.548 51.2168 188.548 49.4206ZM193.834 49.4206C193.834 48.1376 192.91 47.1112 191.73 47.1112C190.498 47.1112 189.574 48.0863 189.574 49.4206C189.574 50.7549 190.498 51.73 191.73 51.73C192.91 51.73 193.834 50.7549 193.834 49.4206Z" fill="#F7F7F7"/>
<path d="M196.297 53.5262L196.707 52.9104C197.22 53.4236 197.939 53.6802 198.657 53.6802C199.735 53.6802 200.915 53.013 200.915 51.1655V50.9602C200.659 51.6787 199.786 52.2432 198.606 52.2432C196.912 52.2432 195.681 50.9089 195.681 49.2154C195.681 47.5218 196.861 46.1875 198.606 46.1875C199.684 46.1875 200.659 46.6494 200.967 47.4705V46.3415H201.89V51.1655C201.89 53.6802 200.094 54.45 198.709 54.45C197.733 54.45 196.912 54.0907 196.297 53.5262ZM200.967 49.1127C200.967 47.9324 199.992 47.0086 198.811 47.0086C197.631 47.0086 196.707 47.9324 196.707 49.164C196.707 50.3957 197.631 51.3195 198.811 51.3195C200.043 51.3708 200.967 50.447 200.967 49.1127Z" fill="#F7F7F7"/>
<path d="M203.071 46.2901H204.046V47.3678C204.457 46.5981 205.278 46.1875 206.202 46.1875C207.741 46.1875 208.46 47.1113 208.46 48.7535V52.5511H207.485V48.9074C207.485 47.7784 207.074 47.1626 205.945 47.1626C204.816 47.1626 204.046 48.035 204.046 49.0614V52.5511H203.071V46.2901Z" fill="#F7F7F7"/>
<path d="M209.229 49.4206C209.229 47.6244 210.666 46.1875 212.514 46.1875C214.361 46.1875 215.798 47.6244 215.798 49.4206C215.798 51.2168 214.361 52.6538 212.514 52.6538C210.666 52.6538 209.229 51.2168 209.229 49.4206ZM214.772 49.4206C214.772 48.0863 213.797 47.1112 212.514 47.1112C211.231 47.1112 210.256 48.0863 210.256 49.4206C210.256 50.7036 211.231 51.73 212.514 51.73C213.797 51.73 214.772 50.7549 214.772 49.4206Z" fill="#F7F7F7"/>
<path d="M216.312 51.73L216.723 50.9602C217.185 51.4221 217.852 51.7813 218.776 51.7813C219.648 51.7813 220.315 51.3708 220.315 50.8063C220.315 50.1391 219.546 49.9852 218.827 49.7799C217.647 49.472 216.62 49.164 216.62 47.9837C216.62 46.8547 217.801 46.1875 218.827 46.1875C219.7 46.1875 220.315 46.3928 220.931 46.8546L220.521 47.6244C220.008 47.2652 219.443 47.1112 218.776 47.1112C218.109 47.1112 217.544 47.4705 217.544 47.9324C217.544 48.5482 218.211 48.7022 218.981 48.8561C220.11 49.1127 221.291 49.5233 221.291 50.7549C221.291 52.0893 219.956 52.6538 218.725 52.6538C217.493 52.6538 216.672 52.0893 216.312 51.73Z" fill="#F7F7F7"/>
<path d="M222.52 50.6522V47.1112H221.597V46.2901H222.52V44.9558L223.496 44.7505V46.2901H225.6V47.1112H223.496V50.7036C223.496 51.576 223.855 51.7813 224.368 51.7813C224.932 51.7813 225.394 51.422 225.394 51.422L225.702 52.1918C225.446 52.3458 224.932 52.6537 224.265 52.6537C223.136 52.6537 222.52 52.1405 222.52 50.6522Z" fill="#F7F7F7"/>
<path d="M226.165 44.5451C226.165 44.1858 226.422 43.8779 226.832 43.8779C227.191 43.8779 227.499 44.1858 227.499 44.5451C227.499 44.9043 227.191 45.1609 226.832 45.1609C226.473 45.2122 226.165 44.9043 226.165 44.5451ZM226.319 46.2899H227.294V52.5509H226.319V46.2899Z" fill="#F7F7F7"/>
<path d="M228.166 49.4206C228.166 47.6244 229.603 46.1875 231.45 46.1875C232.323 46.1875 233.093 46.4954 233.657 47.0086L233.041 47.6758C232.631 47.3165 232.118 47.1112 231.45 47.1112C230.167 47.1112 229.141 48.0863 229.141 49.4206C229.141 50.7036 230.065 51.73 231.45 51.73C232.169 51.73 232.785 51.4734 233.247 51.0115L233.811 51.73C233.195 52.2945 232.374 52.6538 231.45 52.6538C229.654 52.6538 228.166 51.2681 228.166 49.4206Z" fill="#F7F7F7"/>
<path d="M234.17 51.73L234.58 50.9602C235.042 51.4221 235.71 51.7813 236.633 51.7813C237.506 51.7813 238.173 51.3708 238.173 50.8063C238.173 50.1391 237.403 49.9852 236.685 49.7799C235.504 49.472 234.478 49.164 234.478 47.9837C234.478 46.8547 235.658 46.1875 236.685 46.1875C237.557 46.1875 238.173 46.3928 238.789 46.8546L238.378 47.6244C237.865 47.2652 237.3 47.1112 236.633 47.1112C235.966 47.1112 235.402 47.4705 235.402 47.9324C235.402 48.5482 236.069 48.7022 236.839 48.8561C237.968 49.1127 239.148 49.5233 239.148 50.7549C239.148 52.0893 237.814 52.6538 236.582 52.6538C235.35 52.6538 234.529 52.0893 234.17 51.73Z" fill="#F7F7F7"/>
</svg>
