<svg width="245" height="63" viewBox="0 0 245 63" fill="none" xmlns="http://www.w3.org/2000/svg">
<path d="M25.9174 60.1474C25.9174 61.2252 25.045 62.1489 23.916 62.1489C22.8383 62.1489 21.9658 61.2252 21.9658 60.1474V33.8718C21.9658 32.7941 22.8383 31.8703 23.916 31.8703C25.045 31.8703 25.9174 32.7941 25.9174 33.8718V35.2574C27.2517 32.9993 30.1256 31.665 32.9482 31.665C38.4394 31.665 43.0069 35.8219 43.0069 42.2369C43.0069 48.6005 38.4394 52.6548 32.9482 52.6548C30.1256 52.6548 27.2517 51.5257 25.9174 49.2164V60.1474V60.1474ZM32.5377 48.8571C36.1814 48.8571 39.0553 46.2911 39.0553 42.2882C39.0553 38.2853 36.1814 35.514 32.5377 35.514C28.9966 35.514 25.9688 38.0287 25.9688 42.2882C25.9688 46.5991 29.3045 48.8571 32.5377 48.8571Z" fill="#F6F6F7"/>
<path d="M53.937 35.4622C50.0367 35.4622 48.4457 39.619 48.4457 44.9563V50.4988C48.4457 51.5765 47.5733 52.5003 46.4443 52.5003C45.3666 52.5003 44.4941 51.5765 44.4941 50.4988V33.9226C44.4941 32.8449 45.3666 31.9211 46.4443 31.9211C47.5733 31.9211 48.4457 32.8449 48.4457 33.9226V36.6938C49.4721 33.1528 51.4223 31.7158 54.0396 31.7158C55.5279 31.7158 57.9399 32.0237 57.5807 34.1278C57.3754 35.3595 56.2463 35.6161 54.8607 35.5135C54.5528 35.4622 54.1936 35.4622 53.937 35.4622Z" fill="#F6F6F7"/>
<path d="M74.4143 43.6733H59.5829C60.0448 47.0091 62.6621 49.1645 66.1005 49.1645C68.5125 49.1645 69.8468 48.5487 71.2325 47.0604C71.9509 46.2393 73.08 45.9827 73.8498 46.5472C74.6196 47.163 74.7735 48.2921 74.209 49.0105C72.2589 51.5252 69.231 52.7056 65.9979 52.7056C60.2501 52.7056 55.6826 48.5487 55.6826 42.1337C55.6826 35.7701 60.2501 31.7158 65.9979 31.7158C71.7457 31.7158 76.0052 35.7701 76.0052 42.1337C75.9539 43.0061 75.2354 43.6733 74.4143 43.6733ZM72.1049 40.5941C71.643 37.2583 69.231 35.2056 65.9979 35.2056C62.6621 35.2056 60.0961 37.207 59.6342 40.5941H72.1049Z" fill="#F6F6F7"/>
<path d="M94.2756 23.6587C94.2756 22.581 95.1481 21.6572 96.2771 21.6572C97.3548 21.6572 98.2272 22.581 98.2272 23.6587V50.4476C98.2272 51.5253 97.3548 52.449 96.2771 52.449C95.1481 52.449 94.2756 51.5253 94.2756 50.4476V49.1646C92.9413 51.4226 90.0674 52.7056 87.2448 52.7056C81.7536 52.7056 77.0322 48.5487 77.0322 42.1851C77.0322 35.7701 81.651 31.7159 87.1935 31.7159C90.1187 31.7159 92.9413 32.8962 94.2756 35.1543V23.6587V23.6587ZM87.5528 35.5135C83.9091 35.5135 81.0352 38.0795 81.0352 42.0825C81.0352 46.0341 83.9091 48.8053 87.5528 48.8053C91.1451 48.8053 94.2243 46.342 94.2243 42.0825C94.2756 37.8229 90.7859 35.5135 87.5528 35.5135Z" fill="#F6F6F7"/>
<path d="M104.897 33.8716C104.897 32.7939 104.025 31.8701 102.896 31.8701C101.818 31.8701 100.946 32.7939 100.946 33.8716V50.4478C100.946 51.5255 101.818 52.4493 102.896 52.4493C104.025 52.4493 104.897 51.5255 104.897 50.4478V33.8716Z" fill="#F6F6F7"/>
<path d="M123.938 49.1645C122.603 51.4226 119.678 52.7056 116.856 52.7056C111.364 52.7056 106.643 48.5487 106.643 42.185C106.643 35.7701 111.364 31.7158 116.856 31.7158C119.678 31.7158 122.603 32.8962 123.938 35.1542V33.9226C123.938 32.8449 124.81 31.9211 125.888 31.9211C127.017 31.9211 127.889 32.8449 127.889 33.9226V50.4988C127.889 51.5765 127.017 52.5003 125.888 52.5003C124.81 52.5003 123.938 51.5765 123.938 50.4988V49.1645ZM117.266 35.5135C113.623 35.5135 110.697 38.0795 110.697 42.0824C110.697 46.034 113.623 48.8053 117.266 48.8053C120.859 48.8053 123.938 46.3419 123.938 42.0824C123.938 37.8229 120.448 35.5135 117.266 35.5135Z" fill="#F6F6F7"/>
<path d="M18.7317 43.6733H3.9003C4.36217 47.0091 6.97947 49.1645 10.4179 49.1645C12.8299 49.1645 14.1642 48.5487 15.5499 47.0604C16.2683 46.2393 17.3974 45.9827 18.1672 46.5472C18.9369 47.163 19.0909 48.2921 18.5264 49.0105C16.5762 51.5252 13.5484 52.7056 10.3153 52.7056C4.56745 52.7056 0 48.5487 0 42.1337C0 35.7701 4.56745 31.7158 10.3153 31.7158C16.0631 31.7158 20.3226 35.7701 20.3226 42.1337C20.3226 43.0061 19.5528 43.6733 18.7317 43.6733ZM16.4223 40.5941C15.9604 37.2583 13.5484 35.2056 10.3153 35.2056C6.97948 35.2056 4.41349 37.207 3.95161 40.5941H16.4223Z" fill="#F6F6F7"/>
<path d="M80.0064 30.0724C81.9905 30.0724 83.5988 28.4641 83.5988 26.4801C83.5988 24.4961 81.9905 22.8877 80.0064 22.8877C78.0224 22.8877 76.4141 24.4961 76.4141 26.4801C76.4141 28.4641 78.0224 30.0724 80.0064 30.0724Z" fill="#FDFDFD"/>
<path d="M88.628 29.0979C90.0735 29.0979 91.2453 27.9261 91.2453 26.4806C91.2453 25.0351 90.0735 23.8633 88.628 23.8633C87.1826 23.8633 86.0107 25.0351 86.0107 26.4806C86.0107 27.9261 87.1826 29.0979 88.628 29.0979Z" fill="#FDFDFD"/>
<path d="M125.783 30.0724C127.767 30.0724 129.376 28.4641 129.376 26.4801C129.376 24.4961 127.767 22.8877 125.783 22.8877C123.799 22.8877 122.191 24.4961 122.191 26.4801C122.191 28.4641 123.799 30.0724 125.783 30.0724Z" fill="#FDFDFD"/>
<path d="M117.213 29.0979C118.658 29.0979 119.83 27.9261 119.83 26.4806C119.83 25.0351 118.658 23.8633 117.213 23.8633C115.767 23.8633 114.595 25.0351 114.595 26.4806C114.595 27.9261 115.767 29.0979 117.213 29.0979Z" fill="#FDFDFD"/>
<path d="M122.757 18.6291C124.741 18.6291 126.349 17.0207 126.349 15.0367C126.349 13.0527 124.741 11.4443 122.757 11.4443C120.773 11.4443 119.165 13.0527 119.165 15.0367C119.165 17.0207 120.773 18.6291 122.757 18.6291Z" fill="#FDFDFD"/>
<path d="M115.263 21.9651C116.708 21.9651 117.88 20.7933 117.88 19.3478C117.88 17.9023 116.708 16.7305 115.263 16.7305C113.817 16.7305 112.646 17.9023 112.646 19.3478C112.646 20.7933 113.817 21.9651 115.263 21.9651Z" fill="#FDFDFD"/>
<path d="M108.951 24.9412C110 24.9412 110.85 24.0911 110.85 23.0424C110.85 21.9937 110 21.1436 108.951 21.1436C107.902 21.1436 107.052 21.9937 107.052 23.0424C107.052 24.0911 107.902 24.9412 108.951 24.9412Z" fill="#FDFDFD"/>
<path d="M114.339 10.2639C116.323 10.2639 117.931 8.65549 117.931 6.67148C117.931 4.68746 116.323 3.0791 114.339 3.0791C112.355 3.0791 110.747 4.68746 110.747 6.67148C110.747 8.65549 112.355 10.2639 114.339 10.2639Z" fill="#FDFDFD"/>
<path d="M110.028 16.7307C111.473 16.7307 112.645 15.5589 112.645 14.1134C112.645 12.6679 111.473 11.4961 110.028 11.4961C108.582 11.4961 107.411 12.6679 107.411 14.1134C107.411 15.5589 108.582 16.7307 110.028 16.7307Z" fill="#FDFDFD"/>
<path d="M102.895 7.18475C104.879 7.18475 106.487 5.57639 106.487 3.59238C106.487 1.60836 104.879 0 102.895 0C100.911 0 99.3022 1.60836 99.3022 3.59238C99.3022 5.57639 100.911 7.18475 102.895 7.18475Z" fill="#FDFDFD"/>
<path d="M102.894 14.8313C104.339 14.8313 105.511 13.6595 105.511 12.214C105.511 10.7685 104.339 9.59668 102.894 9.59668C101.448 9.59668 100.276 10.7685 100.276 12.214C100.276 13.6595 101.448 14.8313 102.894 14.8313Z" fill="#FDFDFD"/>
<path d="M102.895 21.4519C103.944 21.4519 104.794 20.6018 104.794 19.5531C104.794 18.5044 103.944 17.6543 102.895 17.6543C101.846 17.6543 100.996 18.5044 100.996 19.5531C100.996 20.6018 101.846 21.4519 102.895 21.4519Z" fill="#FDFDFD"/>
<path d="M91.4513 10.2639C93.4353 10.2639 95.0436 8.65549 95.0436 6.67148C95.0436 4.68746 93.4353 3.0791 91.4513 3.0791C89.4672 3.0791 87.8589 4.68746 87.8589 6.67148C87.8589 8.65549 89.4672 10.2639 91.4513 10.2639Z" fill="#FDFDFD"/>
<path d="M95.7618 16.7307C97.2073 16.7307 98.3791 15.5589 98.3791 14.1134C98.3791 12.6679 97.2073 11.4961 95.7618 11.4961C94.3163 11.4961 93.1445 12.6679 93.1445 14.1134C93.1445 15.5589 94.3163 16.7307 95.7618 16.7307Z" fill="#FDFDFD"/>
<path d="M83.087 18.6291C85.071 18.6291 86.6794 17.0207 86.6794 15.0367C86.6794 13.0527 85.071 11.4443 83.087 11.4443C81.103 11.4443 79.4946 13.0527 79.4946 15.0367C79.4946 17.0207 81.103 18.6291 83.087 18.6291Z" fill="#FDFDFD"/>
<path d="M90.5275 21.9651C91.973 21.9651 93.1448 20.7933 93.1448 19.3478C93.1448 17.9023 91.973 16.7305 90.5275 16.7305C89.082 16.7305 87.9102 17.9023 87.9102 19.3478C87.9102 20.7933 89.082 21.9651 90.5275 21.9651Z" fill="#FDFDFD"/>
<path d="M102.947 29.6115C104.648 29.6115 106.027 28.2329 106.027 26.5323C106.027 24.8317 104.648 23.4531 102.947 23.4531C101.247 23.4531 99.8682 24.8317 99.8682 26.5323C99.8682 28.2329 101.247 29.6115 102.947 29.6115Z" fill="#EC008C"/>
<path d="M141.231 32.1777H147.544V33.0502H142.309V35.5648H147.236V36.4373H142.309V39.5164H147.749V40.3889H141.283V32.1777H141.231Z" fill="#F7F7F7"/>
<path d="M148.466 34.2306H149.441V35.3083C149.852 34.5385 150.673 34.1279 151.597 34.1279C153.136 34.1279 153.855 35.0517 153.855 36.6939V40.4916H152.88V36.8479C152.88 35.7188 152.469 35.103 151.34 35.103C150.211 35.103 149.441 35.9754 149.441 37.0018V40.4916H148.466V34.2306Z" fill="#F7F7F7"/>
<path d="M154.881 32.0752H155.856V35.3083C156.267 34.5385 157.088 34.128 158.011 34.128C159.551 34.128 160.269 35.0517 160.269 36.694V40.4916H159.294V36.8479C159.294 35.7189 158.832 35.1031 157.703 35.1031C156.574 35.1031 155.856 36.0268 155.856 37.0019V40.5429H154.881V32.0752V32.0752Z" fill="#F7F7F7"/>
<path d="M161.04 37.3611C161.04 35.5136 162.271 34.1279 163.965 34.1279C164.94 34.1279 165.864 34.5385 166.325 35.3596V34.2819H167.301V40.5429H166.325V39.4139C165.864 40.235 164.991 40.6455 163.965 40.6455C162.271 40.5942 161.04 39.1573 161.04 37.3611ZM166.325 37.3611C166.325 36.0781 165.402 35.0517 164.221 35.0517C162.99 35.0517 162.066 36.0268 162.066 37.3611C162.066 38.6954 162.99 39.6705 164.221 39.6705C165.402 39.6705 166.325 38.6954 166.325 37.3611Z" fill="#F7F7F7"/>
<path d="M168.431 34.2306H169.406V35.3083C169.816 34.5385 170.637 34.1279 171.561 34.1279C173.101 34.1279 173.819 35.0517 173.819 36.6939V40.4916H172.844V36.8479C172.844 35.7188 172.434 35.103 171.305 35.103C170.176 35.103 169.406 35.9754 169.406 37.0018V40.4916H168.431V34.2306Z" fill="#F7F7F7"/>
<path d="M174.589 37.3611C174.589 35.5649 176.026 34.1279 177.873 34.1279C178.746 34.1279 179.516 34.4359 180.08 34.949L179.464 35.6162C179.054 35.257 178.54 35.0517 177.873 35.0517C176.59 35.0517 175.564 36.0268 175.564 37.3611C175.564 38.6441 176.488 39.6705 177.873 39.6705C178.592 39.6705 179.208 39.4139 179.669 38.952L180.234 39.6705C179.618 40.235 178.797 40.5942 177.873 40.5942C176.077 40.5942 174.589 39.2086 174.589 37.3611Z" fill="#F7F7F7"/>
<path d="M180.797 32.4855C180.797 32.1263 181.054 31.8184 181.465 31.8184C181.824 31.8184 182.132 32.1263 182.132 32.4855C182.132 32.8448 181.824 33.1014 181.465 33.1014C181.054 33.1527 180.797 32.8448 180.797 32.4855ZM180.951 34.2304H181.926V40.4914H180.951V34.2304Z" fill="#F7F7F7"/>
<path d="M183.057 34.2306H184.032V35.3083C184.442 34.5385 185.263 34.1279 186.187 34.1279C187.727 34.1279 188.445 35.0517 188.445 36.6939V40.4916H187.47V36.8479C187.47 35.7188 187.06 35.103 185.931 35.103C184.801 35.103 184.032 35.9754 184.032 37.0018V40.4916H183.057V34.2306Z" fill="#F7F7F7"/>
<path d="M189.831 41.4666L190.242 40.8508C190.755 41.364 191.473 41.6206 192.192 41.6206C193.27 41.6206 194.45 40.9534 194.45 39.1059V38.9007C194.193 39.6191 193.321 40.1836 192.141 40.1836C190.447 40.1836 189.215 38.8493 189.215 37.1558C189.215 35.4622 190.396 34.1279 192.141 34.1279C193.218 34.1279 194.193 34.5898 194.501 35.4109V34.2819H195.425V39.1059C195.425 41.6206 193.629 42.3904 192.243 42.3904C191.268 42.3904 190.396 42.0312 189.831 41.4666ZM194.45 37.0531C194.45 35.8728 193.475 34.949 192.295 34.949C191.114 34.949 190.19 35.8728 190.19 37.1045C190.19 38.3361 191.114 39.2599 192.295 39.2599C193.526 39.3112 194.45 38.3875 194.45 37.0531Z" fill="#F7F7F7"/>
<path d="M198.864 34.2306H199.788V35.3083C200.249 34.4872 201.173 34.1279 202.148 34.1279C203.893 34.1279 205.073 35.5649 205.073 37.3611C205.073 39.1573 203.842 40.5942 202.148 40.5942C201.173 40.5942 200.249 40.1836 199.788 39.3625V42.2364H198.864V34.2306ZM204.15 37.3611C204.15 36.0268 203.226 35.0517 201.994 35.0517C200.814 35.0517 199.89 36.0268 199.89 37.3611C199.89 38.6954 200.814 39.6705 201.994 39.6705C203.226 39.6705 204.15 38.6954 204.15 37.3611Z" fill="#F7F7F7"/>
<path d="M205.996 34.2306H206.971V35.5649C207.33 34.7438 208.152 34.1279 209.383 34.1279V35.2056C207.946 35.2056 206.971 36.0268 206.971 37.5663V40.5429H205.996V34.2306Z" fill="#F7F7F7"/>
<path d="M209.641 37.3611C209.641 35.5649 210.975 34.1279 212.771 34.1279C214.413 34.1279 215.748 35.5649 215.748 37.3611C215.748 37.5663 215.748 37.7203 215.748 37.7203H210.667C210.821 38.952 211.796 39.7218 212.925 39.7218C213.644 39.7218 214.311 39.4652 214.824 39.0546L215.234 39.7731C214.567 40.2863 213.746 40.5942 212.874 40.5942C211.129 40.5942 209.641 39.3625 209.641 37.3611ZM214.773 36.9505C214.67 35.8215 213.798 34.949 212.72 34.949C211.642 34.949 210.77 35.7702 210.667 36.9505H214.773Z" fill="#F7F7F7"/>
<path d="M216.362 37.3611C216.362 35.5649 217.799 34.1279 219.647 34.1279C220.519 34.1279 221.289 34.4359 221.854 34.949L221.238 35.6162C220.827 35.257 220.314 35.0517 219.647 35.0517C218.364 35.0517 217.337 36.0268 217.337 37.3611C217.337 38.6441 218.261 39.6705 219.647 39.6705C220.365 39.6705 220.981 39.4139 221.443 38.952L222.007 39.6705C221.392 40.235 220.571 40.5942 219.647 40.5942C217.799 40.5942 216.362 39.2086 216.362 37.3611Z" fill="#F7F7F7"/>
<path d="M222.521 32.4855C222.521 32.1263 222.778 31.8184 223.188 31.8184C223.547 31.8184 223.855 32.1263 223.855 32.4855C223.855 32.8448 223.547 33.1014 223.188 33.1014C222.829 33.1527 222.521 32.8448 222.521 32.4855ZM222.675 34.2304H223.65V40.4914H222.675V34.2304Z" fill="#F7F7F7"/>
<path d="M224.471 39.6705L224.882 38.9007C225.344 39.3625 226.011 39.7218 226.935 39.7218C227.807 39.7218 228.474 39.3112 228.474 38.7467C228.474 38.0795 227.704 37.9256 226.986 37.7203C225.805 37.4124 224.779 37.1045 224.779 35.9241C224.779 34.7951 225.959 34.1279 226.986 34.1279C227.858 34.1279 228.474 34.3332 229.09 34.7951L228.679 35.5649C228.166 35.2056 227.602 35.0517 226.935 35.0517C226.267 35.0517 225.703 35.4109 225.703 35.8728C225.703 36.4886 226.37 36.6426 227.14 36.7965C228.269 37.0531 229.449 37.4637 229.449 38.6954C229.449 40.0297 228.115 40.5942 226.883 40.5942C225.652 40.5942 224.83 40.0297 224.471 39.6705Z" fill="#F7F7F7"/>
<path d="M230.168 32.4855C230.168 32.1263 230.425 31.8184 230.836 31.8184C231.195 31.8184 231.503 32.1263 231.503 32.4855C231.503 32.8448 231.195 33.1014 230.836 33.1014C230.425 33.1527 230.168 32.8448 230.168 32.4855ZM230.322 34.2304H231.297V40.4914H230.322V34.2304Z" fill="#F7F7F7"/>
<path d="M232.169 37.3611C232.169 35.5649 233.606 34.1279 235.454 34.1279C237.301 34.1279 238.738 35.5649 238.738 37.3611C238.738 39.1573 237.301 40.5942 235.454 40.5942C233.606 40.5942 232.169 39.1573 232.169 37.3611ZM237.712 37.3611C237.712 36.0268 236.737 35.0517 235.454 35.0517C234.171 35.0517 233.196 36.0268 233.196 37.3611C233.196 38.6441 234.171 39.6705 235.454 39.6705C236.737 39.6705 237.712 38.6954 237.712 37.3611Z" fill="#F7F7F7"/>
<path d="M239.611 34.2306H240.586V35.3083C240.996 34.5385 241.818 34.1279 242.741 34.1279C244.281 34.1279 244.999 35.0517 244.999 36.6939V40.4916H244.024V36.8479C244.024 35.7188 243.614 35.103 242.485 35.103C241.356 35.103 240.586 35.9754 240.586 37.0018V40.4916H239.611V34.2306Z" fill="#F7F7F7"/>
<path d="M140.82 49.4206C140.82 47.6244 142.257 46.1875 144.105 46.1875C144.977 46.1875 145.747 46.4954 146.312 47.0086L145.696 47.6758C145.285 47.3165 144.772 47.1112 144.105 47.1112C142.822 47.1112 141.795 48.0863 141.795 49.4206C141.795 50.7036 142.719 51.73 144.105 51.73C144.823 51.73 145.439 51.4734 145.901 51.0115L146.465 51.73C145.85 52.2945 145.029 52.6538 144.105 52.6538C142.257 52.6538 140.82 51.2681 140.82 49.4206Z" fill="#F7F7F7"/>
<path d="M146.774 49.4206C146.774 47.5731 148.006 46.1875 149.7 46.1875C150.675 46.1875 151.598 46.5981 152.06 47.4192V46.3415H153.035V52.6025H152.06V51.5247C151.598 52.3459 150.726 52.7564 149.7 52.7564C147.955 52.6538 146.774 51.2168 146.774 49.4206ZM152.06 49.4206C152.06 48.1376 151.137 47.1112 149.956 47.1112C148.725 47.1112 147.801 48.0863 147.801 49.4206C147.801 50.7549 148.725 51.73 149.956 51.73C151.137 51.73 152.06 50.7549 152.06 49.4206Z" fill="#F7F7F7"/>
<path d="M154.164 46.2901H155.139V47.3678C155.549 46.5981 156.37 46.1875 157.294 46.1875C158.834 46.1875 159.552 47.1113 159.552 48.7535V52.5511H158.577V48.9074C158.577 47.7784 158.167 47.1626 157.037 47.1626C155.908 47.1626 155.139 48.035 155.139 49.0614V52.5511H154.164V46.2901Z" fill="#F7F7F7"/>
<path d="M160.322 49.4206C160.322 47.6244 161.759 46.1875 163.606 46.1875C164.479 46.1875 165.248 46.4954 165.813 47.0086L165.197 47.6758C164.787 47.3165 164.273 47.1112 163.606 47.1112C162.323 47.1112 161.297 48.0863 161.297 49.4206C161.297 50.7036 162.221 51.73 163.606 51.73C164.325 51.73 164.941 51.4734 165.402 51.0115L165.967 51.73C165.351 52.2945 164.53 52.6538 163.606 52.6538C161.759 52.6538 160.322 51.2681 160.322 49.4206Z" fill="#F7F7F7"/>
<path d="M166.276 49.4206C166.276 47.6244 167.61 46.1875 169.406 46.1875C171.049 46.1875 172.383 47.6244 172.383 49.4206C172.383 49.6259 172.383 49.7799 172.383 49.7799H167.302C167.456 51.0115 168.431 51.7813 169.56 51.7813C170.279 51.7813 170.946 51.5247 171.459 51.1142L171.87 51.8327C171.203 52.3459 170.381 52.6538 169.509 52.6538C167.764 52.6538 166.276 51.4221 166.276 49.4206ZM171.408 49.0101C171.305 47.881 170.433 47.0086 169.355 47.0086C168.277 47.0086 167.405 47.8297 167.302 49.0101H171.408Z" fill="#F7F7F7"/>
<path d="M173.254 46.2901H174.229V47.6244C174.588 46.8033 175.409 46.1875 176.641 46.1875V47.2652C175.204 47.2652 174.229 48.0863 174.229 49.6259V52.6025H173.254V46.2901Z" fill="#F7F7F7"/>
<path d="M179.31 49.4207C179.31 47.5732 180.542 46.1876 182.235 46.1876C183.21 46.1876 184.134 46.5981 184.596 47.4192V44.1348H185.571V52.5512H184.647V51.4735C184.185 52.2946 183.262 52.7051 182.287 52.7051C180.49 52.6538 179.31 51.2169 179.31 49.4207ZM184.596 49.4207C184.596 48.1377 183.672 47.1113 182.492 47.1113C181.26 47.1113 180.336 48.0864 180.336 49.4207C180.336 50.755 181.26 51.7301 182.492 51.7301C183.672 51.7301 184.596 50.755 184.596 49.4207Z" fill="#F7F7F7"/>
<path d="M186.547 44.5461C186.547 44.1868 186.803 43.8789 187.214 43.8789C187.573 43.8789 187.881 44.1868 187.881 44.5461C187.881 44.9053 187.573 45.1619 187.214 45.1619C186.803 45.2132 186.547 44.9053 186.547 44.5461ZM186.701 46.2909H187.676V52.5519H186.701V46.2909Z" fill="#F7F7F7"/>
<path d="M188.547 49.4206C188.547 47.5731 189.779 46.1875 191.473 46.1875C192.448 46.1875 193.371 46.5981 193.833 47.4192V46.3415H194.808V52.6025H193.833V51.5247C193.371 52.3459 192.499 52.7564 191.473 52.7564C189.779 52.6538 188.547 51.2168 188.547 49.4206ZM193.833 49.4206C193.833 48.1376 192.91 47.1112 191.729 47.1112C190.497 47.1112 189.574 48.0863 189.574 49.4206C189.574 50.7549 190.497 51.73 191.729 51.73C192.91 51.73 193.833 50.7549 193.833 49.4206Z" fill="#F7F7F7"/>
<path d="M196.296 53.5262L196.707 52.9104C197.22 53.4236 197.938 53.6802 198.657 53.6802C199.734 53.6802 200.915 53.013 200.915 51.1655V50.9602C200.658 51.6787 199.786 52.2432 198.605 52.2432C196.912 52.2432 195.68 50.9089 195.68 49.2154C195.68 47.5218 196.861 46.1875 198.605 46.1875C199.683 46.1875 200.658 46.6494 200.966 47.4705V46.3415H201.89V51.1655C201.89 53.6802 200.094 54.45 198.708 54.45C197.733 54.45 196.912 54.0907 196.296 53.5262ZM200.966 49.1127C200.966 47.9324 199.991 47.0086 198.811 47.0086C197.63 47.0086 196.707 47.9324 196.707 49.164C196.707 50.3957 197.63 51.3195 198.811 51.3195C200.042 51.3708 200.966 50.447 200.966 49.1127Z" fill="#F7F7F7"/>
<path d="M203.071 46.2901H204.046V47.3678C204.457 46.5981 205.278 46.1875 206.202 46.1875C207.741 46.1875 208.46 47.1113 208.46 48.7535V52.5511H207.485V48.9074C207.485 47.7784 207.074 47.1626 205.945 47.1626C204.816 47.1626 204.046 48.035 204.046 49.0614V52.5511H203.071V46.2901Z" fill="#F7F7F7"/>
<path d="M209.23 49.4206C209.23 47.6244 210.667 46.1875 212.514 46.1875C214.362 46.1875 215.799 47.6244 215.799 49.4206C215.799 51.2168 214.362 52.6538 212.514 52.6538C210.667 52.6538 209.23 51.2168 209.23 49.4206ZM214.772 49.4206C214.772 48.0863 213.797 47.1112 212.514 47.1112C211.231 47.1112 210.256 48.0863 210.256 49.4206C210.256 50.7036 211.231 51.73 212.514 51.73C213.797 51.73 214.772 50.7549 214.772 49.4206Z" fill="#F7F7F7"/>
<path d="M216.312 51.73L216.723 50.9602C217.185 51.4221 217.852 51.7813 218.776 51.7813C219.648 51.7813 220.315 51.3708 220.315 50.8063C220.315 50.1391 219.546 49.9852 218.827 49.7799C217.647 49.472 216.62 49.164 216.62 47.9837C216.62 46.8547 217.801 46.1875 218.827 46.1875C219.7 46.1875 220.315 46.3928 220.931 46.8546L220.521 47.6244C220.008 47.2652 219.443 47.1112 218.776 47.1112C218.109 47.1112 217.544 47.4705 217.544 47.9324C217.544 48.5482 218.211 48.7022 218.981 48.8561C220.11 49.1127 221.291 49.5233 221.291 50.7549C221.291 52.0893 219.956 52.6538 218.725 52.6538C217.493 52.6538 216.672 52.0893 216.312 51.73Z" fill="#F7F7F7"/>
<path d="M222.52 50.6527V47.1117H221.597V46.2906H222.52V44.9563L223.496 44.751V46.2906H225.6V47.1117H223.496V50.7041C223.496 51.5765 223.855 51.7818 224.368 51.7818C224.932 51.7818 225.394 51.4225 225.394 51.4225L225.702 52.1923C225.446 52.3463 224.932 52.6542 224.265 52.6542C223.136 52.6542 222.52 52.141 222.52 50.6527Z" fill="#F7F7F7"/>
<path d="M226.165 44.5461C226.165 44.1868 226.422 43.8789 226.832 43.8789C227.191 43.8789 227.499 44.1868 227.499 44.5461C227.499 44.9053 227.191 45.1619 226.832 45.1619C226.473 45.2132 226.165 44.9053 226.165 44.5461ZM226.319 46.2909H227.294V52.5519H226.319V46.2909Z" fill="#F7F7F7"/>
<path d="M228.166 49.4206C228.166 47.6244 229.603 46.1875 231.45 46.1875C232.323 46.1875 233.093 46.4954 233.657 47.0086L233.041 47.6758C232.631 47.3165 232.118 47.1112 231.45 47.1112C230.167 47.1112 229.141 48.0863 229.141 49.4206C229.141 50.7036 230.065 51.73 231.45 51.73C232.169 51.73 232.785 51.4734 233.247 51.0115L233.811 51.73C233.195 52.2945 232.374 52.6538 231.45 52.6538C229.654 52.6538 228.166 51.2681 228.166 49.4206Z" fill="#F7F7F7"/>
<path d="M234.17 51.73L234.58 50.9602C235.042 51.4221 235.71 51.7813 236.633 51.7813C237.506 51.7813 238.173 51.3708 238.173 50.8063C238.173 50.1391 237.403 49.9852 236.685 49.7799C235.504 49.472 234.478 49.164 234.478 47.9837C234.478 46.8547 235.658 46.1875 236.685 46.1875C237.557 46.1875 238.173 46.3928 238.789 46.8546L238.378 47.6244C237.865 47.2652 237.3 47.1112 236.633 47.1112C235.966 47.1112 235.402 47.4705 235.402 47.9324C235.402 48.5482 236.069 48.7022 236.839 48.8561C237.968 49.1127 239.148 49.5233 239.148 50.7549C239.148 52.0893 237.814 52.6538 236.582 52.6538C235.35 52.6538 234.529 52.0893 234.17 51.73Z" fill="#F7F7F7"/>
</svg>
