<svg width="24" height="24" viewBox="0 0 24 24" fill="none" xmlns="http://www.w3.org/2000/svg">
<path d="M11 17.6667H13.6667C13.6667 18.0203 13.5262 18.3594 13.2761 18.6095C13.0261 18.8595 12.687 19 12.3333 19C11.9797 19 11.6406 18.8595 11.3905 18.6095C11.1405 18.3594 11 18.0203 11 17.6667ZM18.3333 16.3333V17H6.33334V16.3333L7.66668 15V11C7.66668 8.93333 9.02001 7.11333 11 6.52667V6.33333C11 5.97971 11.1405 5.64057 11.3905 5.39052C11.6406 5.14048 11.9797 5 12.3333 5C12.687 5 13.0261 5.14048 13.2761 5.39052C13.5262 5.64057 13.6667 5.97971 13.6667 6.33333V6.52667C15.6467 7.11333 17 8.93333 17 11V15L18.3333 16.3333ZM15.6667 11C15.6667 10.1159 15.3155 9.2681 14.6904 8.64298C14.0652 8.01786 13.2174 7.66667 12.3333 7.66667C11.4493 7.66667 10.6014 8.01786 9.97632 8.64298C9.3512 9.2681 9.00001 10.1159 9.00001 11V15.6667H15.6667V11ZM17.5 5.79333L16.5533 6.74C17.1172 7.29695 17.5649 7.96028 17.8704 8.69155C18.176 9.42282 18.3333 10.2075 18.3333 11H19.6667C19.6667 9.04667 18.8933 7.16667 17.5 5.79333ZM5.00001 11H6.33334C6.33334 9.4 6.97334 7.86667 8.11334 6.74L7.16668 5.79333C6.4786 6.47438 5.93273 7.28538 5.56077 8.17921C5.18882 9.07304 4.99821 10.0319 5.00001 11V11Z" fill="#EE2D35"/>
</svg>
