<svg xmlns="http://www.w3.org/2000/svg" width="30" height="30" fill="none" viewBox="0 0 30 30">
    <path fill="#58595B" fill-rule="evenodd" d="M18.333 21.491c0-.28.123-.55.342-.748.219-.198.516-.31.825-.31h7c.31 0 .606.112.825.31.219.199.342.468.342.748 0 .28-.123.55-.342.748-.219.198-.515.31-.825.31h-7c-.31 0-.606-.111-.825-.31-.219-.198-.342-.467-.342-.748zm-8.666-6.345c0-.281.123-.55.341-.748.22-.199.516-.31.825-.31h16.334c.31 0 .606.111.825.31.218.198.341.467.341.748 0 .28-.122.549-.341.747-.22.199-.516.31-.825.31H10.833c-.31 0-.606-.111-.825-.31-.218-.198-.341-.467-.341-.748zM0 8.8c0-.28.123-.55.342-.748.219-.198.515-.31.825-.31h25.666c.31 0 .607.112.825.31.22.198.342.467.342.748 0 .28-.123.55-.342.748-.219.198-.515.31-.825.31H1.167c-.31 0-.606-.112-.825-.31C.122 9.349 0 9.08 0 8.8z" clip-rule="evenodd"/>
    <path fill="#A7A9AC" d="M0 0v-1h-1v1h1zm30 0h1v-1h-1v1zm0 30v1h1v-1h-1zM0 30h-1v1h1v-1zM0 1h30v-2H0v2zm29-1v30h2V0h-2zm1 29H0v2h30v-2zM1 30V0h-2v30h2z"/>
</svg>
