<svg width="59" height="59" viewBox="0 0 59 59" fill="none" xmlns="http://www.w3.org/2000/svg">
<circle cx="29.5" cy="29.5" r="29.5" fill="#2BD790"/>
<path d="M26.9897 13.7998C22.2823 13.7998 18.4397 17.6424 18.4397 22.3498C18.4397 25.2934 19.942 27.9097 22.2188 29.45C17.8619 31.3188 14.7754 35.6389 14.7754 40.6712H17.2182C17.2182 35.2603 21.5787 30.8998 26.9897 30.8998C28.6704 30.8998 30.2313 31.3371 31.6067 32.0846C30.1996 33.823 29.4321 35.9919 29.4325 38.2284C29.4325 43.61 33.8223 47.9998 39.204 47.9998C44.5856 47.9998 48.9754 43.61 48.9754 38.2284C48.9754 32.8468 44.5856 28.4569 39.204 28.4569C37.1458 28.4597 35.1414 29.1139 33.4779 30.3257C32.938 29.9874 32.3542 29.7028 31.7606 29.4487C32.923 28.6648 33.8754 27.6076 34.5343 26.37C35.1932 25.1323 35.5384 23.7519 35.5397 22.3498C35.5397 17.6424 31.6971 13.7998 26.9897 13.7998ZM26.9897 16.2427C30.3767 16.2427 33.0968 18.9628 33.0968 22.3498C33.0968 25.7368 30.3767 28.4569 26.9897 28.4569C23.6027 28.4569 20.8825 25.7368 20.8825 22.3498C20.8825 18.9628 23.6027 16.2427 26.9897 16.2427ZM39.204 30.8998C43.2664 30.8998 46.5325 34.1659 46.5325 38.2284C46.5325 42.2908 43.2664 45.5569 39.204 45.5569C35.1415 45.5569 31.8754 42.2908 31.8754 38.2284C31.8754 34.1659 35.1415 30.8998 39.204 30.8998ZM36.4191 33.6847L34.6602 35.4435L37.4488 38.2284L34.6639 41.0132L36.4191 42.7721L39.204 39.9836L41.9888 42.7684L43.7477 41.0132L40.9592 38.2284L43.744 35.4435L41.9888 33.6847L39.204 36.4732L36.4191 33.6883V33.6847Z" fill="white"/>
<path d="M18.4207 23.2472C18.3905 22.9579 18.3736 22.6653 18.3736 22.3694C18.3736 21.8408 18.4241 21.3254 18.5183 20.8233C18.5419 20.7036 18.478 20.5806 18.3669 20.5307C17.9093 20.3279 17.4887 20.0486 17.1253 19.6962C16.6971 19.2859 16.3601 18.792 16.1359 18.2458C15.9117 17.6997 15.8052 17.1133 15.8231 16.5242C15.8534 15.4569 16.2874 14.4428 17.0445 13.6781C17.8756 12.8369 18.9928 12.3781 20.1806 12.3914C21.2539 12.4014 22.2903 12.8103 23.0743 13.5352C23.3401 13.7812 23.569 14.0538 23.7607 14.3464C23.828 14.4495 23.9593 14.4927 24.0737 14.4528C24.6659 14.25 25.2918 14.107 25.9344 14.0405C26.1229 14.0206 26.2305 13.8211 26.1464 13.6548C25.0528 11.5169 22.8186 10.0407 20.2344 10.0008C16.5028 9.94426 13.3937 12.9666 13.3937 16.6473C13.3937 18.7353 14.3661 20.5972 15.8904 21.8175C14.8204 22.3062 13.8345 22.9812 12.9798 23.8257C11.1359 25.6444 10.0928 28.045 10.0255 30.6085C10.0246 30.644 10.0309 30.6793 10.044 30.7124C10.0571 30.7454 10.0768 30.7755 10.1019 30.8009C10.127 30.8263 10.157 30.8465 10.1901 30.8603C10.2232 30.8741 10.2587 30.8812 10.2947 30.8812H12.1823C12.327 30.8812 12.4482 30.7681 12.4515 30.6251C12.5155 28.6967 13.3062 26.8913 14.6959 25.5214C15.6851 24.5439 16.8965 23.8656 18.2189 23.5365C18.3501 23.5032 18.4376 23.3802 18.4207 23.2472Z" fill="white"/>
<path d="M34.7804 23.2472C34.8107 22.9579 34.8275 22.6653 34.8275 22.3694C34.8275 21.8408 34.7771 21.3254 34.6828 20.8233C34.6593 20.7036 34.7232 20.5806 34.8343 20.5307C35.2919 20.3279 35.7125 20.0486 36.0759 19.6962C36.5041 19.2859 36.8411 18.792 37.0653 18.2458C37.2895 17.6997 37.396 17.1133 37.3781 16.5242C37.3478 15.4569 36.9137 14.4428 36.1566 13.6781C35.3255 12.8369 34.2084 12.3781 33.0206 12.3914C31.9472 12.4014 30.9109 12.8103 30.1269 13.5352C29.861 13.7812 29.6322 14.0538 29.4404 14.3464C29.3731 14.4495 29.2419 14.4927 29.1275 14.4528C28.5353 14.25 27.9094 14.107 27.2667 14.0405C27.0783 14.0206 26.9706 13.8211 27.0548 13.6548C28.1483 11.5169 30.3826 10.0407 32.9668 10.0008C36.6984 9.94426 39.8075 12.9666 39.8075 16.6473C39.8075 18.7353 38.8351 20.5972 37.3108 21.8175C38.3808 22.3062 39.3667 22.9812 40.2214 23.8257C42.0653 25.6444 43.1084 28.045 43.1757 30.6085C43.1766 30.644 43.1703 30.6793 43.1572 30.7124C43.144 30.7454 43.1244 30.7755 43.0993 30.8009C43.0742 30.8263 43.0442 30.8465 43.0111 30.8603C42.978 30.8741 42.9424 30.8812 42.9065 30.8812H41.0188C40.8741 30.8812 40.753 30.7681 40.7496 30.6251C40.6857 28.6967 39.895 26.8913 38.5053 25.5214C37.516 24.5439 36.3047 23.8656 34.9823 23.5365C34.8511 23.5032 34.7636 23.3802 34.7804 23.2472Z" fill="white"/>
</svg>
