<svg width="24" height="24" viewBox="0 0 24 24" fill="none" xmlns="http://www.w3.org/2000/svg">
<path d="M19.6129 7.86902C19.3646 7.30759 19.0067 6.79882 18.5591 6.3712C18.1111 5.94231 17.583 5.60147 17.0033 5.36723C16.4023 5.12337 15.7577 4.99855 15.1068 5.00001C14.1938 5.00001 13.3029 5.24422 12.5288 5.70551C12.3435 5.81585 12.1676 5.93705 12.0009 6.06911C11.8342 5.93705 11.6583 5.81585 11.4731 5.70551C10.6989 5.24422 9.80807 5.00001 8.89501 5.00001C8.23752 5.00001 7.60041 5.12302 6.99849 5.36723C6.41694 5.6024 5.89281 5.94067 5.44276 6.3712C4.99455 6.79834 4.63651 7.30723 4.38893 7.86902C4.1315 8.45332 4 9.07379 4 9.71235C4 10.3147 4.12594 10.9424 4.37597 11.581C4.58525 12.1146 4.88529 12.6682 5.26866 13.2272C5.87614 14.1117 6.71142 15.0343 7.74858 15.9695C9.46729 17.5198 11.1693 18.5907 11.2416 18.6341L11.6805 18.9091C11.875 19.0303 12.125 19.0303 12.3195 18.9091L12.7584 18.6341C12.8306 18.5889 14.5308 17.5198 16.2514 15.9695C17.2886 15.0343 18.1238 14.1117 18.7313 13.2272C19.1147 12.6682 19.4166 12.1146 19.624 11.581C19.874 10.9424 20 10.3147 20 9.71235C20.0018 9.07379 19.8703 8.45332 19.6129 7.86902V7.86902ZM12.0009 17.4782C12.0009 17.4782 5.40757 13.352 5.40757 9.71235C5.40757 7.86902 6.96886 6.37482 8.89501 6.37482C10.2489 6.37482 11.4231 7.11288 12.0009 8.19102C12.5788 7.11288 13.753 6.37482 15.1068 6.37482C17.033 6.37482 18.5943 7.86902 18.5943 9.71235C18.5943 13.352 12.0009 17.4782 12.0009 17.4782Z" fill="#7FBA00"/>
</svg>
