<svg width="94" height="95" viewBox="0 0 94 95" fill="none" xmlns="http://www.w3.org/2000/svg">
<path d="M17 93.9562V45.6063C17 45.4958 17.0911 45.4062 17.2016 45.4066C32.0043 45.4536 42.5116 50.6686 45.9991 53.7866C46.0411 53.8241 46.0625 53.8759 46.0625 53.9322V93.9563C46.0625 94.0667 45.973 94.1562 45.8625 94.1562H17.2C17.0895 94.1562 17 94.0667 17 93.9562Z" fill="#E4E6E8"/>
<path d="M76.7179 53.0318C68.5604 56.5867 55.7237 55.7322 50.0403 54.8185C49.9183 54.7989 49.8125 54.8938 49.8125 55.0173V93.9563C49.8125 94.0667 49.902 94.1562 50.0125 94.1562H76.8C76.9105 94.1562 77 94.0667 77 93.9563V53.2169C77 53.0714 76.8512 52.9737 76.7179 53.0318Z" fill="#E4E6E8"/>
<path d="M77 24.0438V48.1359C77 48.1889 76.9815 48.2377 76.943 48.2743C74.0174 51.0529 61.0024 52.884 47.9772 50.1022C47.9511 50.0967 47.9263 50.0859 47.9044 50.0706C38.6111 43.5833 24.6879 41.4416 17.1962 41.4048C17.0857 41.4043 17 41.3148 17 41.2043V10.9187C17 10.8083 17.0895 10.7188 17.2 10.7188H49.6125C49.723 10.7188 49.8125 10.8083 49.8125 10.9187V23.6437C49.8125 23.7542 49.902 23.8438 50.0125 23.8438H76.8C76.9105 23.8438 77 23.9333 77 24.0438Z" fill="#E4E6E8"/>
<path d="M53.5625 19.8937V1.54375C53.5625 1.43329 53.652 1.34375 53.7625 1.34375H76.8C76.9105 1.34375 77 1.43329 77 1.54375V19.8937C77 20.0042 76.9105 20.0938 76.8 20.0938H53.7625C53.652 20.0938 53.5625 20.0042 53.5625 19.8937Z" fill="#E4E6E8"/>
<path d="M17 93.9562V45.6063C17 45.4958 17.0911 45.4062 17.2016 45.4066C32.0043 45.4536 42.5116 50.6686 45.9991 53.7866C46.0411 53.8241 46.0625 53.8759 46.0625 53.9322V93.9563C46.0625 94.0667 45.973 94.1562 45.8625 94.1562H17.2C17.0895 94.1562 17 94.0667 17 93.9562Z" stroke="#E4E6E8"/>
<path d="M76.7179 53.0318C68.5604 56.5867 55.7237 55.7322 50.0403 54.8185C49.9183 54.7989 49.8125 54.8938 49.8125 55.0173V93.9563C49.8125 94.0667 49.902 94.1562 50.0125 94.1562H76.8C76.9105 94.1562 77 94.0667 77 93.9563V53.2169C77 53.0714 76.8512 52.9737 76.7179 53.0318Z" stroke="#E4E6E8"/>
<path d="M77 24.0438V48.1359C77 48.1889 76.9815 48.2377 76.943 48.2743C74.0174 51.0529 61.0024 52.884 47.9772 50.1022C47.9511 50.0967 47.9263 50.0859 47.9044 50.0706C38.6111 43.5833 24.6879 41.4416 17.1962 41.4048C17.0857 41.4043 17 41.3148 17 41.2043V10.9187C17 10.8083 17.0895 10.7188 17.2 10.7188H49.6125C49.723 10.7188 49.8125 10.8083 49.8125 10.9187V23.6437C49.8125 23.7542 49.902 23.8438 50.0125 23.8438H76.8C76.9105 23.8438 77 23.9333 77 24.0438Z" stroke="#E4E6E8"/>
<path d="M53.5625 19.8937V1.54375C53.5625 1.43329 53.652 1.34375 53.7625 1.34375H76.8C76.9105 1.34375 77 1.43329 77 1.54375V19.8937C77 20.0042 76.9105 20.0938 76.8 20.0938H53.7625C53.652 20.0938 53.5625 20.0042 53.5625 19.8937Z" stroke="#E4E6E8"/>
<circle cx="33.875" cy="26.6562" r="10.3125" fill="white"/>
<rect x="55.4375" y="3.21875" width="19.6875" height="15" fill="white"/>
</svg>
