<svg width="24" height="24" viewBox="0 0 24 24" fill="none" xmlns="http://www.w3.org/2000/svg">
<path d="M10.0256 2V4.91839L8.56637 5.64798L6.37758 3.45919L3.45919 6.37758L5.64798 8.56637L4.91839 10.0256H2V14.4031H4.91839L5.64798 15.8623L3.45919 18.0511L6.37758 20.9695L8.56637 18.7807L10.0256 19.5103V22.4287H14.4031V19.5103L15.8623 18.7807L18.0511 20.9695L20.9695 18.0511L18.7807 15.8623L19.5103 14.4031H22.4287V10.0256H19.5103L18.7807 8.56637L20.9695 6.37758L18.0511 3.45919L15.8623 5.64798L14.4031 4.91839V2H10.0256Z" stroke="#EC008C" stroke-width="1.04465" stroke-linecap="round" stroke-linejoin="round"/>
<path d="M12.2162 15.1322C13.828 15.1322 15.1346 13.8256 15.1346 12.2138C15.1346 10.602 13.828 9.29541 12.2162 9.29541C10.6045 9.29541 9.29785 10.602 9.29785 12.2138C9.29785 13.8256 10.6045 15.1322 12.2162 15.1322Z" stroke="#EC008C" stroke-width="1.04465" stroke-linecap="round" stroke-linejoin="round"/>
</svg>
