<svg width="88" height="88" viewBox="0 0 88 88" fill="none" xmlns="http://www.w3.org/2000/svg">
<path d="M7.69772 63.6977C10.8445 63.6977 13.3954 61.1467 13.3954 58C13.3954 54.8532 10.8445 52.3022 7.69772 52.3022C4.55096 52.3022 2 54.8532 2 58C2 61.1467 4.55096 63.6977 7.69772 63.6977Z" fill="#A7A9AC"/>
<path d="M21.3719 62.1515C23.6645 62.1515 25.5231 60.293 25.5231 58.0003C25.5231 55.7077 23.6645 53.8491 21.3719 53.8491C19.0793 53.8491 17.2207 55.7077 17.2207 58.0003C17.2207 60.293 19.0793 62.1515 21.3719 62.1515Z" fill="#EC008C"/>
<path d="M80.3022 63.6977C83.449 63.6977 85.9999 61.1467 85.9999 58C85.9999 54.8532 83.449 52.3022 80.3022 52.3022C77.1554 52.3022 74.6045 54.8532 74.6045 58C74.6045 61.1467 77.1554 63.6977 80.3022 63.6977Z" fill="#A7A9AC"/>
<path d="M66.7088 62.1515C69.0015 62.1515 70.86 60.293 70.86 58.0003C70.86 55.7077 69.0015 53.8491 66.7088 53.8491C64.4162 53.8491 62.5576 55.7077 62.5576 58.0003C62.5576 60.293 64.4162 62.1515 66.7088 62.1515Z" fill="#EC008C"/>
<path d="M75.5044 45.5473C78.6511 45.5473 81.2021 42.9963 81.2021 39.8496C81.2021 36.7028 78.6511 34.1519 75.5044 34.1519C72.3576 34.1519 69.8066 36.7028 69.8066 39.8496C69.8066 42.9963 72.3576 45.5473 75.5044 45.5473Z" fill="#A7A9AC"/>
<path d="M63.618 50.8385C65.9106 50.8385 67.7692 48.98 67.7692 46.6873C67.7692 44.3947 65.9106 42.5361 63.618 42.5361C61.3254 42.5361 59.4668 44.3947 59.4668 46.6873C59.4668 48.98 61.3254 50.8385 63.618 50.8385Z" fill="#EC008C"/>
<path d="M53.6073 55.5594C55.2706 55.5594 56.619 54.2111 56.619 52.5478C56.619 50.8845 55.2706 49.5361 53.6073 49.5361C51.9441 49.5361 50.5957 50.8845 50.5957 52.5478C50.5957 54.2111 51.9441 55.5594 53.6073 55.5594Z" fill="#EC008C"/>
<path d="M34.3144 55.3959C35.9777 55.3959 37.326 54.0475 37.326 52.3842C37.326 50.7209 35.9777 49.3726 34.3144 49.3726C32.6511 49.3726 31.3027 50.7209 31.3027 52.3842C31.3027 54.0475 32.6511 55.3959 34.3144 55.3959Z" fill="#EC008C"/>
<path d="M62.1538 32.2792C65.3005 32.2792 67.8515 29.7283 67.8515 26.5815C67.8515 23.4347 65.3005 20.8838 62.1538 20.8838C59.007 20.8838 56.4561 23.4347 56.4561 26.5815C56.4561 29.7283 59.007 32.2792 62.1538 32.2792Z" fill="#A7A9AC"/>
<path d="M55.3162 42.5353C57.6089 42.5353 59.4674 40.6767 59.4674 38.3841C59.4674 36.0915 57.6089 34.2329 55.3162 34.2329C53.0236 34.2329 51.165 36.0915 51.165 38.3841C51.165 40.6767 53.0236 42.5353 55.3162 42.5353Z" fill="#EC008C"/>
<path d="M44.0014 27.3954C47.1482 27.3954 49.6991 24.8445 49.6991 21.6977C49.6991 18.551 47.1482 16 44.0014 16C40.8547 16 38.3037 18.551 38.3037 21.6977C38.3037 24.8445 40.8547 27.3954 44.0014 27.3954Z" fill="#A7A9AC"/>
<path d="M44.0019 50.0238C45.6652 50.0238 47.0136 48.6754 47.0136 47.0121C47.0136 45.3488 45.6652 44.0005 44.0019 44.0005C42.3386 44.0005 40.9902 45.3488 40.9902 47.0121C40.9902 48.6754 42.3386 50.0238 44.0019 50.0238Z" fill="#EC008C"/>
<path d="M25.8501 32.2792C28.9968 32.2792 31.5478 29.7283 31.5478 26.5815C31.5478 23.4347 28.9968 20.8838 25.8501 20.8838C22.7033 20.8838 20.1523 23.4347 20.1523 26.5815C20.1523 29.7283 22.7033 32.2792 25.8501 32.2792Z" fill="#A7A9AC"/>
<path d="M32.6873 42.5353C34.98 42.5353 36.8385 40.6767 36.8385 38.3841C36.8385 36.0915 34.98 34.2329 32.6873 34.2329C30.3947 34.2329 28.5361 36.0915 28.5361 38.3841C28.5361 40.6767 30.3947 42.5353 32.6873 42.5353Z" fill="#EC008C"/>
<path d="M44.4071 40.5817C46.6997 40.5817 48.5583 38.7231 48.5583 36.4305C48.5583 34.1378 46.6997 32.2793 44.4071 32.2793C42.1144 32.2793 40.2559 34.1378 40.2559 36.4305C40.2559 38.7231 42.1144 40.5817 44.4071 40.5817Z" fill="#EC008C"/>
<path d="M12.5815 45.5473C15.7283 45.5473 18.2792 42.9963 18.2792 39.8496C18.2792 36.7028 15.7283 34.1519 12.5815 34.1519C9.43474 34.1519 6.88379 36.7028 6.88379 39.8496C6.88379 42.9963 9.43474 45.5473 12.5815 45.5473Z" fill="#A7A9AC"/>
<path d="M24.3826 50.8385C26.6753 50.8385 28.5338 48.98 28.5338 46.6873C28.5338 44.3947 26.6753 42.5361 24.3826 42.5361C22.09 42.5361 20.2314 44.3947 20.2314 46.6873C20.2314 48.98 22.09 50.8385 24.3826 50.8385Z" fill="#EC008C"/>
<path d="M44.081 62.9662C46.7782 62.9662 48.9648 60.7797 48.9648 58.0825C48.9648 55.3853 46.7782 53.1987 44.081 53.1987C41.3838 53.1987 39.1973 55.3853 39.1973 58.0825C39.1973 60.7797 41.3838 62.9662 44.081 62.9662Z" fill="#EC008C"/>
</svg>
