<svg width="88" height="88" viewBox="0 0 88 88" fill="none" xmlns="http://www.w3.org/2000/svg">
<path d="M7.69772 64.6977C10.8445 64.6977 13.3954 62.1467 13.3954 59C13.3954 55.8532 10.8445 53.3022 7.69772 53.3022C4.55096 53.3022 2 55.8532 2 59C2 62.1467 4.55096 64.6977 7.69772 64.6977Z" fill="#EC008C"/>
<path d="M21.3719 63.1515C23.6645 63.1515 25.5231 61.293 25.5231 59.0003C25.5231 56.7077 23.6645 54.8491 21.3719 54.8491C19.0793 54.8491 17.2207 56.7077 17.2207 59.0003C17.2207 61.293 19.0793 63.1515 21.3719 63.1515Z" fill="#EC008C"/>
<path d="M80.3022 64.6977C83.449 64.6977 85.9999 62.1467 85.9999 59C85.9999 55.8532 83.449 53.3022 80.3022 53.3022C77.1554 53.3022 74.6045 55.8532 74.6045 59C74.6045 62.1467 77.1554 64.6977 80.3022 64.6977Z" fill="#EC008C"/>
<path d="M66.7088 63.1515C69.0015 63.1515 70.86 61.293 70.86 59.0003C70.86 56.7077 69.0015 54.8491 66.7088 54.8491C64.4162 54.8491 62.5576 56.7077 62.5576 59.0003C62.5576 61.293 64.4162 63.1515 66.7088 63.1515Z" fill="#EC008C"/>
<path d="M75.5044 46.5473C78.6511 46.5473 81.2021 43.9963 81.2021 40.8496C81.2021 37.7028 78.6511 35.1519 75.5044 35.1519C72.3576 35.1519 69.8066 37.7028 69.8066 40.8496C69.8066 43.9963 72.3576 46.5473 75.5044 46.5473Z" fill="#EC008C"/>
<path d="M63.618 51.8385C65.9106 51.8385 67.7692 49.98 67.7692 47.6873C67.7692 45.3947 65.9106 43.5361 63.618 43.5361C61.3254 43.5361 59.4668 45.3947 59.4668 47.6873C59.4668 49.98 61.3254 51.8385 63.618 51.8385Z" fill="#EC008C"/>
<path d="M53.6073 56.5594C55.2706 56.5594 56.619 55.2111 56.619 53.5478C56.619 51.8845 55.2706 50.5361 53.6073 50.5361C51.9441 50.5361 50.5957 51.8845 50.5957 53.5478C50.5957 55.2111 51.9441 56.5594 53.6073 56.5594Z" fill="#EC008C"/>
<path d="M34.3144 56.3959C35.9777 56.3959 37.326 55.0475 37.326 53.3842C37.326 51.7209 35.9777 50.3726 34.3144 50.3726C32.6511 50.3726 31.3027 51.7209 31.3027 53.3842C31.3027 55.0475 32.6511 56.3959 34.3144 56.3959Z" fill="#EC008C"/>
<path d="M62.1538 33.2792C65.3005 33.2792 67.8515 30.7283 67.8515 27.5815C67.8515 24.4347 65.3005 21.8838 62.1538 21.8838C59.007 21.8838 56.4561 24.4347 56.4561 27.5815C56.4561 30.7283 59.007 33.2792 62.1538 33.2792Z" fill="#EC008C"/>
<path d="M55.3162 43.5353C57.6089 43.5353 59.4674 41.6767 59.4674 39.3841C59.4674 37.0915 57.6089 35.2329 55.3162 35.2329C53.0236 35.2329 51.165 37.0915 51.165 39.3841C51.165 41.6767 53.0236 43.5353 55.3162 43.5353Z" fill="#EC008C"/>
<path d="M44.0014 28.3954C47.1482 28.3954 49.6991 25.8445 49.6991 22.6977C49.6991 19.551 47.1482 17 44.0014 17C40.8547 17 38.3037 19.551 38.3037 22.6977C38.3037 25.8445 40.8547 28.3954 44.0014 28.3954Z" fill="#EC008C"/>
<path d="M44.0019 51.0238C45.6652 51.0238 47.0136 49.6754 47.0136 48.0121C47.0136 46.3488 45.6652 45.0005 44.0019 45.0005C42.3386 45.0005 40.9902 46.3488 40.9902 48.0121C40.9902 49.6754 42.3386 51.0238 44.0019 51.0238Z" fill="#EC008C"/>
<path d="M25.8501 33.2792C28.9968 33.2792 31.5478 30.7283 31.5478 27.5815C31.5478 24.4347 28.9968 21.8838 25.8501 21.8838C22.7033 21.8838 20.1523 24.4347 20.1523 27.5815C20.1523 30.7283 22.7033 33.2792 25.8501 33.2792Z" fill="#EC008C"/>
<path d="M32.6873 43.5353C34.98 43.5353 36.8385 41.6767 36.8385 39.3841C36.8385 37.0915 34.98 35.2329 32.6873 35.2329C30.3947 35.2329 28.5361 37.0915 28.5361 39.3841C28.5361 41.6767 30.3947 43.5353 32.6873 43.5353Z" fill="#EC008C"/>
<path d="M44.4071 41.5817C46.6997 41.5817 48.5583 39.7231 48.5583 37.4305C48.5583 35.1378 46.6997 33.2793 44.4071 33.2793C42.1144 33.2793 40.2559 35.1378 40.2559 37.4305C40.2559 39.7231 42.1144 41.5817 44.4071 41.5817Z" fill="#EC008C"/>
<path d="M12.5815 46.5473C15.7283 46.5473 18.2792 43.9963 18.2792 40.8496C18.2792 37.7028 15.7283 35.1519 12.5815 35.1519C9.43474 35.1519 6.88379 37.7028 6.88379 40.8496C6.88379 43.9963 9.43474 46.5473 12.5815 46.5473Z" fill="#EC008C"/>
<path d="M24.3826 51.8385C26.6753 51.8385 28.5338 49.98 28.5338 47.6873C28.5338 45.3947 26.6753 43.5361 24.3826 43.5361C22.09 43.5361 20.2314 45.3947 20.2314 47.6873C20.2314 49.98 22.09 51.8385 24.3826 51.8385Z" fill="#EC008C"/>
<path d="M44.081 63.9662C46.7782 63.9662 48.9648 61.7797 48.9648 59.0825C48.9648 56.3853 46.7782 54.1987 44.081 54.1987C41.3838 54.1987 39.1973 56.3853 39.1973 59.0825C39.1973 61.7797 41.3838 63.9662 44.081 63.9662Z" fill="#EC008C"/>
</svg>
