<svg width="88" height="88" viewBox="0 0 88 88" fill="none" xmlns="http://www.w3.org/2000/svg">
<path d="M7.69772 66.6977C10.8445 66.6977 13.3954 64.1467 13.3954 61C13.3954 57.8532 10.8445 55.3022 7.69772 55.3022C4.55096 55.3022 2 57.8532 2 61C2 64.1467 4.55096 66.6977 7.69772 66.6977Z" fill="#A7A9AC"/>
<path d="M21.3719 65.1515C23.6645 65.1515 25.5231 63.293 25.5231 61.0003C25.5231 58.7077 23.6645 56.8491 21.3719 56.8491C19.0793 56.8491 17.2207 58.7077 17.2207 61.0003C17.2207 63.293 19.0793 65.1515 21.3719 65.1515Z" fill="#A7A9AC"/>
<path d="M80.3022 66.6977C83.449 66.6977 85.9999 64.1467 85.9999 61C85.9999 57.8532 83.449 55.3022 80.3022 55.3022C77.1554 55.3022 74.6045 57.8532 74.6045 61C74.6045 64.1467 77.1554 66.6977 80.3022 66.6977Z" fill="#A7A9AC"/>
<path d="M66.7088 65.1515C69.0015 65.1515 70.86 63.293 70.86 61.0003C70.86 58.7077 69.0015 56.8491 66.7088 56.8491C64.4162 56.8491 62.5576 58.7077 62.5576 61.0003C62.5576 63.293 64.4162 65.1515 66.7088 65.1515Z" fill="#A7A9AC"/>
<path d="M75.5044 48.5473C78.6511 48.5473 81.2021 45.9963 81.2021 42.8496C81.2021 39.7028 78.6511 37.1519 75.5044 37.1519C72.3576 37.1519 69.8066 39.7028 69.8066 42.8496C69.8066 45.9963 72.3576 48.5473 75.5044 48.5473Z" fill="#A7A9AC"/>
<path d="M63.618 53.8385C65.9106 53.8385 67.7692 51.98 67.7692 49.6873C67.7692 47.3947 65.9106 45.5361 63.618 45.5361C61.3254 45.5361 59.4668 47.3947 59.4668 49.6873C59.4668 51.98 61.3254 53.8385 63.618 53.8385Z" fill="#A7A9AC"/>
<path d="M53.6073 58.5594C55.2706 58.5594 56.619 57.2111 56.619 55.5478C56.619 53.8845 55.2706 52.5361 53.6073 52.5361C51.9441 52.5361 50.5957 53.8845 50.5957 55.5478C50.5957 57.2111 51.9441 58.5594 53.6073 58.5594Z" fill="#A7A9AC"/>
<path d="M34.3144 58.3959C35.9777 58.3959 37.326 57.0475 37.326 55.3842C37.326 53.7209 35.9777 52.3726 34.3144 52.3726C32.6511 52.3726 31.3027 53.7209 31.3027 55.3842C31.3027 57.0475 32.6511 58.3959 34.3144 58.3959Z" fill="#A7A9AC"/>
<path d="M62.1538 35.2792C65.3005 35.2792 67.8515 32.7283 67.8515 29.5815C67.8515 26.4347 65.3005 23.8838 62.1538 23.8838C59.007 23.8838 56.4561 26.4347 56.4561 29.5815C56.4561 32.7283 59.007 35.2792 62.1538 35.2792Z" fill="#A7A9AC"/>
<path d="M55.3162 45.5353C57.6089 45.5353 59.4674 43.6767 59.4674 41.3841C59.4674 39.0915 57.6089 37.2329 55.3162 37.2329C53.0236 37.2329 51.165 39.0915 51.165 41.3841C51.165 43.6767 53.0236 45.5353 55.3162 45.5353Z" fill="#A7A9AC"/>
<path d="M44.0014 30.3954C47.1482 30.3954 49.6991 27.8445 49.6991 24.6977C49.6991 21.551 47.1482 19 44.0014 19C40.8547 19 38.3037 21.551 38.3037 24.6977C38.3037 27.8445 40.8547 30.3954 44.0014 30.3954Z" fill="#A7A9AC"/>
<path d="M44.0019 53.0238C45.6652 53.0238 47.0136 51.6754 47.0136 50.0121C47.0136 48.3488 45.6652 47.0005 44.0019 47.0005C42.3386 47.0005 40.9902 48.3488 40.9902 50.0121C40.9902 51.6754 42.3386 53.0238 44.0019 53.0238Z" fill="#A7A9AC"/>
<path d="M25.8501 35.2792C28.9968 35.2792 31.5478 32.7283 31.5478 29.5815C31.5478 26.4347 28.9968 23.8838 25.8501 23.8838C22.7033 23.8838 20.1523 26.4347 20.1523 29.5815C20.1523 32.7283 22.7033 35.2792 25.8501 35.2792Z" fill="#A7A9AC"/>
<path d="M32.6873 45.5353C34.98 45.5353 36.8385 43.6767 36.8385 41.3841C36.8385 39.0915 34.98 37.2329 32.6873 37.2329C30.3947 37.2329 28.5361 39.0915 28.5361 41.3841C28.5361 43.6767 30.3947 45.5353 32.6873 45.5353Z" fill="#A7A9AC"/>
<path d="M44.4071 43.5817C46.6997 43.5817 48.5583 41.7231 48.5583 39.4305C48.5583 37.1378 46.6997 35.2793 44.4071 35.2793C42.1144 35.2793 40.2559 37.1378 40.2559 39.4305C40.2559 41.7231 42.1144 43.5817 44.4071 43.5817Z" fill="#A7A9AC"/>
<path d="M12.5815 48.5473C15.7283 48.5473 18.2792 45.9963 18.2792 42.8496C18.2792 39.7028 15.7283 37.1519 12.5815 37.1519C9.43474 37.1519 6.88379 39.7028 6.88379 42.8496C6.88379 45.9963 9.43474 48.5473 12.5815 48.5473Z" fill="#A7A9AC"/>
<path d="M24.3826 53.8385C26.6753 53.8385 28.5338 51.98 28.5338 49.6873C28.5338 47.3947 26.6753 45.5361 24.3826 45.5361C22.09 45.5361 20.2314 47.3947 20.2314 49.6873C20.2314 51.98 22.09 53.8385 24.3826 53.8385Z" fill="#A7A9AC"/>
<path d="M44.081 65.9662C46.7782 65.9662 48.9648 63.7797 48.9648 61.0825C48.9648 58.3853 46.7782 56.1987 44.081 56.1987C41.3838 56.1987 39.1973 58.3853 39.1973 61.0825C39.1973 63.7797 41.3838 65.9662 44.081 65.9662Z" fill="#EC008C"/>
</svg>
