<svg width="30" height="30" viewBox="0 0 30 30" fill="none" xmlns="http://www.w3.org/2000/svg">
<mask id="mask0" mask-type="alpha" maskUnits="userSpaceOnUse" x="1" y="1" width="28" height="28">
<path d="M14.9406 1.25L14.9387 1.33041V1.33041L15.021 1.33004C19.2491 1.33004 23.0305 3.24191 25.5492 6.24725L25.6595 6.38055L28.736 3.30412V14.4321C28.7418 14.5622 28.7458 14.6928 28.748 14.8238L28.75 15.0206L27.4428 15.0082C26.0512 14.9998 24.1485 14.9991 22.0881 15.0026L17.0212 15.0175L20.5906 11.4481C19.4995 9.73561 17.6463 8.55574 15.5084 8.387C15.3901 8.3411 15.2292 8.31675 15.0208 8.31675L14.9229 8.31735V8.31735L14.9307 11.1158V11.1158L14.9375 12.9788L11.372 9.4131C11.3017 9.46307 11.2336 9.51392 11.1675 9.56548C10.3656 10.1272 9.6933 10.8613 9.20457 11.7141L9.12482 11.8573L9.09964 11.8324C8.66113 12.6331 8.38255 13.5338 8.30695 14.4916C8.2668 14.5951 8.24313 14.7312 8.23784 14.9033L8.2367 14.9792C8.2367 15.012 8.2369 15.0446 8.23731 15.0771L11.0834 15.0692V15.0692L12.9795 15.0623L9.41003 18.6318C10.5012 20.3443 12.3544 21.5241 14.4923 21.6929C14.6105 21.7388 14.7714 21.7631 14.9799 21.7631C16.7054 21.7631 17.9528 21.2014 18.8331 20.5144C19.6351 19.9527 20.3074 19.2186 20.7961 18.3658L20.8758 18.2226L25.9185 23.3183C23.4111 26.6187 19.4445 28.7498 14.9797 28.7498C10.7516 28.7498 6.97014 26.838 4.45143 23.8326L4.34113 23.6993L1.2647 26.7758V15.6478L1.25728 15.4523V15.4523L1.25224 15.2297L1.25056 15.1045V15.1045L1.25 14.979C1.25 10.7509 3.16186 6.96948 6.16721 4.45077L6.30051 4.34048L3.22407 1.26404H14.3521C14.5473 1.25521 14.7434 1.25065 14.9406 1.25Z" fill="white"/>
</mask>
<g mask="url(#mask0)">
<path d="M28.7499 15.0207C28.7492 14.8235 28.7447 14.6273 28.7358 14.4322V3.30415L25.6594 6.38058C23.1415 3.29859 19.3111 1.33008 15.0208 1.33008C10.556 1.33008 6.58944 3.46123 4.08203 6.76166L9.12468 11.8573C9.61886 10.9434 10.3209 10.1584 11.1674 9.56551C12.0477 8.8785 13.2951 8.31678 15.0206 8.31678C15.2291 8.31678 15.39 8.34114 15.5082 8.38703C17.6461 8.55577 19.4993 9.73564 20.5905 11.4481L17.021 15.0176C21.5422 14.9998 26.6496 14.9894 28.7495 15.0199" fill="#1C3AA9"/>
<g filter="url(#filter0_d)">
<path d="M14.9406 1.25C14.7434 1.25065 14.5473 1.25521 14.3521 1.26404H3.22407L6.30051 4.34048C3.21851 6.85836 1.25 10.6887 1.25 14.979C1.25 19.4439 3.38119 23.4104 6.68158 25.9178L11.7773 20.8752C10.8633 20.381 10.0783 19.679 9.48543 18.8325C8.79846 17.9521 8.2367 16.7047 8.2367 14.9792C8.2367 14.7708 8.26106 14.6099 8.30695 14.4916C8.47569 12.3537 9.65557 10.5005 11.3681 9.40938L14.9375 12.9788C14.9198 8.45768 14.9093 3.35021 14.9398 1.25039" fill="#4285F4"/>
</g>
<g filter="url(#filter1_d)">
<path d="M1.25098 15.0591C1.25163 15.2563 1.25618 15.4524 1.26502 15.6476V26.7756L4.34145 23.6992C6.85934 26.7812 10.6897 28.7497 14.98 28.7497C19.4448 28.7497 23.4114 26.6185 25.9188 23.3181L20.8761 18.2224C20.382 19.1364 19.6799 19.9213 18.8335 20.5142C17.9531 21.2012 16.7057 21.763 14.9802 21.763C14.7717 21.763 14.6108 21.7386 14.4926 21.6927C12.3547 21.524 10.5015 20.3441 9.41035 18.6316L12.9798 15.0622C8.45866 15.0799 3.35119 15.0903 1.25137 15.0599" fill="#ABABAB"/>
</g>
</g>
<defs>
<filter id="filter0_d" x="-4.75" y="-4.75" width="25.6906" height="36.6678" filterUnits="userSpaceOnUse" color-interpolation-filters="sRGB">
<feFlood flood-opacity="0" result="BackgroundImageFix"/>
<feColorMatrix in="SourceAlpha" type="matrix" values="0 0 0 0 0 0 0 0 0 0 0 0 0 0 0 0 0 0 127 0"/>
<feOffset/>
<feGaussianBlur stdDeviation="3"/>
<feColorMatrix type="matrix" values="0 0 0 0 0 0 0 0 0 0 0 0 0 0 0 0 0 0 0.24 0"/>
<feBlend mode="normal" in2="BackgroundImageFix" result="effect1_dropShadow"/>
<feBlend mode="normal" in="SourceGraphic" in2="effect1_dropShadow" result="shape"/>
</filter>
<filter id="filter1_d" x="-4.74902" y="9.05908" width="36.6678" height="25.6906" filterUnits="userSpaceOnUse" color-interpolation-filters="sRGB">
<feFlood flood-opacity="0" result="BackgroundImageFix"/>
<feColorMatrix in="SourceAlpha" type="matrix" values="0 0 0 0 0 0 0 0 0 0 0 0 0 0 0 0 0 0 127 0"/>
<feOffset/>
<feGaussianBlur stdDeviation="3"/>
<feColorMatrix type="matrix" values="0 0 0 0 0 0 0 0 0 0 0 0 0 0 0 0 0 0 0.24 0"/>
<feBlend mode="normal" in2="BackgroundImageFix" result="effect1_dropShadow"/>
<feBlend mode="normal" in="SourceGraphic" in2="effect1_dropShadow" result="shape"/>
</filter>
</defs>
</svg>
