<svg width="28" height="28" viewBox="0 0 28 28" fill="none" xmlns="http://www.w3.org/2000/svg">
<path d="M22.1889 8.92708L27.1005 13.7969H23.4023C23.4023 16.5087 22.4393 18.8194 20.5132 20.7292C18.587 22.6389 16.2757 23.5938 13.5791 23.5938C11.6915 23.5938 9.93877 23.0781 8.32083 22.0469L10.1121 20.2708C11.1522 20.8438 12.3079 21.1302 13.5791 21.1302C15.6208 21.1302 17.364 20.4141 18.8085 18.9818C20.2531 17.5495 20.9754 15.8212 20.9754 13.7969H17.2773L22.1889 8.92708ZM6.18284 13.7969H9.88099L4.9116 18.6667L0 13.7969H3.69815C3.69815 11.0851 4.66121 8.77431 6.58733 6.86458C8.51344 4.95486 10.844 4 13.5791 4C15.4667 4 17.2195 4.51563 18.8374 5.54688L16.9884 7.32292C15.9483 6.75 14.8119 6.46354 13.5791 6.46354C11.5375 6.46354 9.79431 7.17969 8.34972 8.61198C6.90514 10.0443 6.18284 11.7726 6.18284 13.7969Z" fill="#302550"/>
</svg>
