<svg width="59" height="59" viewBox="0 0 59 59" fill="none" xmlns="http://www.w3.org/2000/svg">
<circle cx="29.5" cy="29.5" r="29.5" fill="#2BD790"/>
<path d="M44.5664 39.0703H32.4266C32.1882 39.0703 31.9931 39.2652 31.9931 39.5034V42.1021C31.9931 42.3403 32.1882 42.5352 32.4266 42.5352H44.5664C44.8049 42.5352 45 42.3403 45 42.1021V39.5034C45 39.2652 44.8049 39.0703 44.5664 39.0703ZM41.0979 22.8289C41.0979 16.9062 36.3341 12.0933 30.4268 12.0013C24.4219 11.9092 19.4197 16.8304 19.4197 22.8289C19.4197 26.2288 20.9914 29.2605 23.441 31.2474C21.6997 32.0537 20.1146 33.1606 18.7585 34.5173C15.7886 37.4787 14.1085 41.3874 14.0001 45.5561C13.9987 45.6138 14.0088 45.6713 14.03 45.7251C14.0511 45.7789 14.0828 45.828 14.1232 45.8693C14.1636 45.9107 14.2119 45.9436 14.2652 45.966C14.3186 45.9885 14.3758 46 14.4337 46H17.4687C17.7017 46 17.8968 45.8159 17.9022 45.5831C18.0052 42.4431 19.2788 39.5034 21.5171 37.2729C23.8529 34.9396 26.9529 33.6565 30.2588 33.6565C36.242 33.6565 41.0979 28.8112 41.0979 22.8289ZM35.1635 27.7284C33.852 29.0385 32.1123 29.7586 30.2588 29.7586C28.4053 29.7586 26.6656 29.0385 25.3541 27.7284C24.6996 27.078 24.1825 26.303 23.8334 25.4493C23.4843 24.5956 23.3103 23.6806 23.3218 22.7585C23.338 20.9828 24.048 19.2666 25.2891 17.9944C26.5898 16.6626 28.3294 15.9209 30.1884 15.8992C32.0256 15.883 33.8086 16.5976 35.1201 17.8807C36.4642 19.1962 37.2013 20.9557 37.2013 22.8289C37.1958 24.6804 36.475 26.4183 35.1635 27.7284Z" fill="white"/>
</svg>
