<svg width="24" height="24" viewBox="0 0 24 24" fill="none" xmlns="http://www.w3.org/2000/svg">
<path d="M21.9399 20.9365L15.4474 14.5277C16.4549 13.242 16.9999 11.67 16.9999 10.0166C16.9999 8.03745 16.2174 6.18168 14.8024 4.78245C13.3875 3.38323 11.5025 2.61328 9.49997 2.61328C7.49748 2.61328 5.61248 3.38569 4.19749 4.78245C2.78 6.17921 2 8.03745 2 10.0166C2 11.9933 2.7825 13.854 4.19749 15.2507C5.61248 16.65 7.49498 17.4199 9.49997 17.4199C11.175 17.4199 12.765 16.8819 14.0674 15.8899L20.5599 22.2962C20.579 22.315 20.6016 22.33 20.6264 22.3401C20.6513 22.3503 20.678 22.3556 20.7049 22.3556C20.7319 22.3556 20.7585 22.3503 20.7834 22.3401C20.8083 22.33 20.8309 22.315 20.8499 22.2962L21.9399 21.2228C21.959 21.204 21.9741 21.1817 21.9844 21.1571C21.9947 21.1325 22 21.1062 22 21.0796C22 21.053 21.9947 21.0267 21.9844 21.0022C21.9741 20.9776 21.959 20.9553 21.9399 20.9365V20.9365ZM13.46 13.9256C12.4 14.9694 10.995 15.5444 9.49997 15.5444C8.00497 15.5444 6.59998 14.9694 5.53998 13.9256C4.48249 12.8792 3.89999 11.4923 3.89999 10.0166C3.89999 8.54087 4.48249 7.15152 5.53998 6.10765C6.59998 5.06378 8.00497 4.48879 9.49997 4.48879C10.995 4.48879 12.4025 5.06131 13.46 6.10765C14.5174 7.15398 15.0999 8.54087 15.0999 10.0166C15.0999 11.4923 14.5174 12.8817 13.46 13.9256Z" fill="#58595B"/>
</svg>
