<svg xmlns="http://www.w3.org/2000/svg" width="28" height="28" fill="none" viewBox="0 0 28 28">
    <path fill="#58595B" d="M13.743 6.819l-3.062-3.063c-.341-.341-.896-.341-1.237 0L6.38 6.82c-.341.341-.341.895 0 1.237.342.342.896.342 1.238 0l1.568-1.569v17.138c0 .483.392.875.875.875s.875-.392.875-.875V6.487l1.57 1.569c.17.171.394.256.618.256.224 0 .448-.085.618-.256.342-.342.342-.896 0-1.237zM21.619 19.944c-.342-.342-.896-.342-1.238 0l-1.569 1.569V4.375c0-.483-.392-.875-.875-.875s-.875.392-.875.875v17.138l-1.569-1.57c-.341-.34-.896-.34-1.237 0-.341.343-.341.896 0 1.238l3.063 3.063c.17.17.394.256.618.256.224 0 .448-.085.619-.256l3.063-3.063c.341-.342.341-.895 0-1.237z"/>
    <path fill="#A7A9AC" d="M0 0v-1h-1v1h1zm28 0h1v-1h-1v1zm0 28v1h1v-1h-1zM0 28h-1v1h1v-1zM0 1h28v-2H0v2zm27-1v28h2V0h-2zm1 27H0v2h28v-2zM1 28V0h-2v28h2z"/>
</svg>
