<svg width="28" height="28" viewBox="0 0 28 28" fill="none" xmlns="http://www.w3.org/2000/svg">
<path d="M13.7435 6.81877L10.681 3.75627C10.3398 3.41458 9.78502 3.41458 9.44377 3.75627L6.38127 6.81877C6.03958 7.16045 6.03958 7.71433 6.38127 8.05601C6.72252 8.3977 7.27727 8.3977 7.61852 8.05601L9.18739 6.48714V23.6249C9.18739 24.1079 9.57939 24.4999 10.0624 24.4999C10.5454 24.4999 10.9374 24.1079 10.9374 23.6249V6.48714L12.5063 8.05601C12.6769 8.22708 12.9009 8.31239 13.1249 8.31239C13.3489 8.31239 13.5729 8.22708 13.7435 8.05601C14.0852 7.71433 14.0852 7.16045 13.7435 6.81877V6.81877Z" fill="#58595B"/>
<path d="M21.6185 19.9439C21.2768 19.6022 20.7229 19.6022 20.3813 19.9439L18.8124 21.5128V4.375C18.8124 3.892 18.4204 3.5 17.9374 3.5C17.4544 3.5 17.0624 3.892 17.0624 4.375V21.5128L15.4935 19.9439C15.1518 19.6022 14.5975 19.6022 14.2563 19.9439C13.9146 20.2856 13.9146 20.8394 14.2563 21.1811L17.3188 24.2436C17.4898 24.4147 17.7134 24.5 17.9374 24.5C18.1614 24.5 18.3849 24.4147 18.556 24.2436L21.6185 21.1811C21.9602 20.8394 21.9602 20.2856 21.6185 19.9439Z" fill="#58595B"/>
</svg>
