<svg width="1940" height="103" viewBox="0 0 1940 103" fill="none" xmlns="http://www.w3.org/2000/svg">
<g filter="url(#filter0_d)">
<rect x="10" y="6" width="1920" height="83" fill="url(#paint0_linear)"/>
</g>
<path d="M322.672 55H334.134V52.624H325.422V48.026H333.342V45.782H325.422V41.668H333.98V39.292H322.672V55ZM344.999 49.324C344.999 51.304 344.141 53.328 341.853 53.328C339.829 53.328 338.663 51.612 338.663 49.324C338.663 46.904 339.741 45.298 341.853 45.298C343.921 45.298 344.999 47.256 344.999 49.324ZM336.243 59.202H338.751V53.526H338.795C339.587 54.78 341.149 55.308 342.601 55.308C345.967 55.308 347.507 52.426 347.507 49.368C347.507 46.046 345.769 43.318 342.183 43.318C340.731 43.318 339.367 43.868 338.663 45.166H338.619V43.626H336.243V59.202ZM349.627 55H352.135V49.588C352.135 47.08 353.499 45.694 355.215 45.694C355.567 45.694 355.941 45.76 356.293 45.804V43.384C356.073 43.362 355.919 43.318 355.347 43.318C353.807 43.318 352.311 44.616 352.025 45.826H351.981V43.626H349.627V55ZM367.292 49.962C367.71 46.552 365.51 43.318 361.924 43.318C358.536 43.318 356.424 46.09 356.424 49.324C356.424 52.822 358.426 55.308 361.99 55.308C364.476 55.308 366.588 53.922 367.138 51.436H364.762C364.322 52.69 363.442 53.328 361.99 53.328C359.9 53.328 358.932 51.744 358.932 49.962H367.292ZM358.932 48.312C358.998 46.618 360.186 45.298 361.924 45.298C363.618 45.298 364.696 46.728 364.784 48.312H358.932ZM371.157 49.434C371.157 47.388 371.993 45.298 374.347 45.298C376.283 45.298 377.493 46.794 377.493 49.302C377.493 51.282 376.547 53.328 374.303 53.328C372.125 53.328 371.157 51.392 371.157 49.434ZM379.913 39.292H377.405V45.1H377.361C376.591 43.846 375.007 43.318 373.577 43.318C371.091 43.318 368.649 45.122 368.649 49.236C368.649 52.646 370.387 55.308 373.973 55.308C375.403 55.308 376.833 54.758 377.493 53.46H377.537V55H379.913V39.292ZM382.714 55H385.222V43.626H382.714V55ZM382.714 41.668H385.222V39.292H382.714V41.668ZM394.973 51.172C394.973 52.756 393.257 53.328 392.157 53.328C391.277 53.328 389.847 52.998 389.847 51.876C389.847 50.556 390.815 50.16 391.893 49.984C392.993 49.786 394.203 49.808 394.973 49.302V51.172ZM397.481 46.618C397.481 44.22 395.149 43.318 392.927 43.318C390.419 43.318 387.933 44.176 387.757 47.102H390.265C390.375 45.87 391.365 45.298 392.773 45.298C393.785 45.298 395.127 45.54 395.127 46.838C395.127 48.312 393.521 48.114 391.717 48.444C389.605 48.686 387.339 49.148 387.339 51.986C387.339 54.208 389.187 55.308 391.233 55.308C392.575 55.308 394.181 54.89 395.171 53.922C395.369 54.956 396.095 55.308 397.107 55.308C397.525 55.308 398.317 55.154 398.691 55.022V53.284C398.427 53.328 398.229 53.328 398.075 53.328C397.613 53.328 397.481 53.086 397.481 52.47V46.618ZM405.708 49.764C405.774 53.658 408.678 55.374 412.264 55.374C415.388 55.374 418.512 53.966 418.512 50.446C418.512 48.818 417.522 47.058 415.454 46.442C414.64 46.2 411.164 45.298 410.922 45.232C409.8 44.924 409.052 44.308 409.052 43.208C409.052 41.624 410.658 41.162 411.934 41.162C413.826 41.162 415.19 41.91 415.322 43.934H418.072C418.072 40.656 415.322 38.918 412.044 38.918C409.206 38.918 406.302 40.392 406.302 43.538C406.302 45.166 407.094 46.794 409.778 47.52C411.934 48.114 413.364 48.4 414.464 48.818C415.102 49.06 415.762 49.544 415.762 50.754C415.762 51.942 414.86 53.13 412.44 53.13C410.24 53.13 408.458 52.184 408.458 49.764H405.708ZM423.626 54.956L423.34 55.836C423.032 56.804 422.746 57.42 421.58 57.42C421.184 57.42 420.788 57.332 420.392 57.266V59.378C420.964 59.466 421.536 59.51 422.13 59.51C424.748 59.51 425.342 57.662 426.156 55.616L430.578 43.626H427.96L425.078 52.118H425.034L422.064 43.626H419.314L423.626 54.956ZM431.976 55H434.484V48.29C434.484 46.618 435.562 45.298 437.234 45.298C438.708 45.298 439.412 46.068 439.456 47.85V55H441.964V47.19C441.964 44.638 440.402 43.318 437.938 43.318C436.442 43.318 435.144 44.088 434.396 45.342L434.352 45.298V43.626H431.976V55ZM443.465 45.496H445.357V52.206C445.401 54.098 445.885 55.11 448.503 55.11C449.053 55.11 449.581 55.022 450.131 54.978V53.042C449.779 53.13 449.427 53.13 449.075 53.13C447.953 53.13 447.865 52.602 447.865 51.568V45.496H450.131V43.626H447.865V40.216H445.357V43.626H443.465V45.496ZM451.935 55H454.443V49.588C454.443 47.08 455.807 45.694 457.523 45.694C457.875 45.694 458.249 45.76 458.601 45.804V43.384C458.381 43.362 458.227 43.318 457.655 43.318C456.115 43.318 454.619 44.616 454.333 45.826H454.289V43.626H451.935V55ZM459.736 55H462.244V43.626H459.736V55ZM459.736 41.668H462.244V39.292H459.736V41.668ZM470.505 49.764C470.571 53.658 473.475 55.374 477.061 55.374C480.185 55.374 483.309 53.966 483.309 50.446C483.309 48.818 482.319 47.058 480.251 46.442C479.437 46.2 475.961 45.298 475.719 45.232C474.597 44.924 473.849 44.308 473.849 43.208C473.849 41.624 475.455 41.162 476.731 41.162C478.623 41.162 479.987 41.91 480.119 43.934H482.869C482.869 40.656 480.119 38.918 476.841 38.918C474.003 38.918 471.099 40.392 471.099 43.538C471.099 45.166 471.891 46.794 474.575 47.52C476.731 48.114 478.161 48.4 479.261 48.818C479.899 49.06 480.559 49.544 480.559 50.754C480.559 51.942 479.657 53.13 477.237 53.13C475.037 53.13 473.255 52.184 473.255 49.764H470.505ZM495.683 49.962C496.101 46.552 493.901 43.318 490.315 43.318C486.927 43.318 484.815 46.09 484.815 49.324C484.815 52.822 486.817 55.308 490.381 55.308C492.867 55.308 494.979 53.922 495.529 51.436H493.153C492.713 52.69 491.833 53.328 490.381 53.328C488.291 53.328 487.323 51.744 487.323 49.962H495.683ZM487.323 48.312C487.389 46.618 488.577 45.298 490.315 45.298C492.009 45.298 493.087 46.728 493.175 48.312H487.323ZM497.59 55H500.098V49.588C500.098 47.08 501.462 45.694 503.178 45.694C503.53 45.694 503.904 45.76 504.256 45.804V43.384C504.036 43.362 503.882 43.318 503.31 43.318C501.77 43.318 500.274 44.616 499.988 45.826H499.944V43.626H497.59V55ZM508.338 55H511.154L515.224 43.626H512.628L509.856 52.36H509.812L506.93 43.626H504.202L508.338 55ZM516.798 55H519.306V43.626H516.798V55ZM516.798 41.668H519.306V39.292H516.798V41.668ZM532.225 47.432C531.983 44.638 529.739 43.318 527.099 43.318C523.359 43.318 521.489 46.002 521.489 49.434C521.489 52.778 523.447 55.308 527.011 55.308C529.937 55.308 531.763 53.68 532.225 50.732H529.717C529.475 52.36 528.463 53.328 527.011 53.328C524.833 53.328 523.997 51.326 523.997 49.434C523.997 45.98 525.823 45.298 527.121 45.298C528.507 45.298 529.519 46.046 529.717 47.432H532.225ZM544.581 49.962C544.999 46.552 542.799 43.318 539.213 43.318C535.825 43.318 533.713 46.09 533.713 49.324C533.713 52.822 535.715 55.308 539.279 55.308C541.765 55.308 543.877 53.922 544.427 51.436H542.051C541.611 52.69 540.731 53.328 539.279 53.328C537.189 53.328 536.221 51.744 536.221 49.962H544.581ZM536.221 48.312C536.287 46.618 537.475 45.298 539.213 45.298C540.907 45.298 541.985 46.728 542.073 48.312H536.221Z" fill="white"/>
<line x1="300.5" y1="27.5" x2="300.5" y2="69.5" stroke="#4D4B4C" stroke-linecap="round"/>
<circle cx="1679" cy="48" r="19.25" stroke="white" stroke-width="1.5"/>
<path d="M1588.24 43.148V56H1591.07V50.456H1596.27V56H1599.1V43.148H1596.27V48.08H1591.07V43.148H1588.24ZM1607.58 50.348H1603.42C1603.43 50.168 1603.47 49.964 1603.53 49.736C1603.6 49.508 1603.71 49.292 1603.87 49.088C1604.04 48.884 1604.25 48.716 1604.52 48.584C1604.79 48.44 1605.14 48.368 1605.54 48.368C1606.17 48.368 1606.63 48.536 1606.93 48.872C1607.24 49.208 1607.46 49.7 1607.58 50.348ZM1603.42 51.968H1610.13C1610.18 51.248 1610.12 50.558 1609.95 49.898C1609.79 49.238 1609.51 48.65 1609.13 48.134C1608.75 47.618 1608.27 47.21 1607.69 46.91C1607.1 46.598 1606.41 46.442 1605.62 46.442C1604.91 46.442 1604.26 46.568 1603.67 46.82C1603.1 47.072 1602.6 47.42 1602.18 47.864C1601.76 48.296 1601.43 48.812 1601.21 49.412C1600.98 50.012 1600.86 50.66 1600.86 51.356C1600.86 52.076 1600.97 52.736 1601.19 53.336C1601.42 53.936 1601.73 54.452 1602.14 54.884C1602.55 55.316 1603.05 55.652 1603.64 55.892C1604.22 56.12 1604.88 56.234 1605.62 56.234C1606.67 56.234 1607.57 55.994 1608.32 55.514C1609.06 55.034 1609.61 54.236 1609.97 53.12H1607.72C1607.64 53.408 1607.41 53.684 1607.04 53.948C1606.67 54.2 1606.22 54.326 1605.71 54.326C1604.99 54.326 1604.43 54.14 1604.05 53.768C1603.67 53.396 1603.46 52.796 1603.42 51.968ZM1611.72 43.148V56H1614.28V43.148H1611.72ZM1620.99 54.326C1620.58 54.326 1620.23 54.242 1619.94 54.074C1619.66 53.906 1619.42 53.69 1619.24 53.426C1619.07 53.15 1618.95 52.832 1618.86 52.472C1618.79 52.112 1618.76 51.746 1618.76 51.374C1618.76 50.99 1618.79 50.618 1618.86 50.258C1618.94 49.898 1619.06 49.58 1619.22 49.304C1619.4 49.028 1619.63 48.806 1619.91 48.638C1620.2 48.458 1620.55 48.368 1620.97 48.368C1621.38 48.368 1621.72 48.458 1622 48.638C1622.28 48.806 1622.52 49.034 1622.7 49.322C1622.88 49.598 1623 49.916 1623.08 50.276C1623.16 50.636 1623.2 51.002 1623.2 51.374C1623.2 51.746 1623.17 52.112 1623.09 52.472C1623.02 52.832 1622.9 53.15 1622.72 53.426C1622.55 53.69 1622.32 53.906 1622.03 54.074C1621.76 54.242 1621.41 54.326 1620.99 54.326ZM1616.29 46.694V59.258H1618.85V54.848H1618.88C1619.19 55.304 1619.59 55.652 1620.07 55.892C1620.56 56.12 1621.1 56.234 1621.67 56.234C1622.36 56.234 1622.95 56.102 1623.45 55.838C1623.97 55.574 1624.4 55.22 1624.73 54.776C1625.08 54.332 1625.34 53.822 1625.51 53.246C1625.67 52.67 1625.76 52.07 1625.76 51.446C1625.76 50.786 1625.67 50.156 1625.51 49.556C1625.34 48.944 1625.08 48.41 1624.73 47.954C1624.38 47.498 1623.95 47.132 1623.42 46.856C1622.89 46.58 1622.26 46.442 1621.53 46.442C1620.95 46.442 1620.42 46.556 1619.94 46.784C1619.46 47.012 1619.07 47.378 1618.76 47.882H1618.72V46.694H1616.29Z" fill="white"/>
<path d="M1856.9 47.4033L1861.17 51.6721L1865.44 47.4033" stroke="white" stroke-width="2" stroke-linecap="round" stroke-linejoin="round"/>
<circle cx="1827" cy="48" r="19.25" stroke="white" stroke-width="1.5"/>
<path d="M1814.28 59.9878C1814.37 60.0128 1814.48 59.999 1814.56 59.9493C1814.65 59.8996 1814.71 59.818 1814.74 59.7223C1815.51 56.8397 1818.65 56.0926 1820.53 55.6455C1821 55.5338 1821.37 55.4453 1821.61 55.341C1823.75 54.4132 1824.44 52.9205 1824.65 51.8314C1824.67 51.7666 1824.66 51.6996 1824.64 51.6373C1824.62 51.575 1824.58 51.5196 1824.53 51.4766C1823.42 50.5157 1822.48 49.0733 1821.88 47.4141C1821.87 47.3665 1821.84 47.3228 1821.81 47.2858C1821.02 46.4337 1820.57 45.5329 1820.57 44.815C1820.57 44.3957 1820.73 44.1144 1821.09 43.9022C1821.14 43.8703 1821.19 43.8256 1821.22 43.7722C1821.25 43.7188 1821.27 43.6583 1821.27 43.5961C1821.44 39.7752 1824.16 36.7673 1827.49 36.7478L1827.58 36.7531C1830.93 36.7996 1833.63 39.872 1833.73 43.7469C1833.73 43.7999 1833.74 43.8519 1833.77 43.8997C1833.79 43.9474 1833.82 43.9897 1833.86 44.0237C1834.1 44.2225 1834.21 44.4745 1834.21 44.8165C1834.21 45.4174 1833.89 46.1562 1833.31 46.8958C1833.28 46.9314 1833.26 46.9715 1833.24 47.0143C1832.64 48.9165 1831.57 50.596 1830.29 51.6236C1830.24 51.6663 1830.2 51.7225 1830.17 51.7863C1830.15 51.8501 1830.14 51.9191 1830.16 51.9859C1830.37 53.0742 1831.06 54.5662 1833.2 55.4955C1833.45 55.605 1833.85 55.6906 1834.34 55.7978C1836.2 56.1999 1839.31 56.8742 1840.07 59.7223C1840.09 59.7699 1840.11 59.8144 1840.14 59.8535C1840.17 59.8926 1840.2 59.9253 1840.25 59.9499C1840.29 59.9745 1840.34 59.9904 1840.39 59.9968C1840.43 60.0032 1840.48 59.9999 1840.53 59.9871C1840.58 59.9743 1840.62 59.9522 1840.66 59.9222C1840.7 59.8921 1840.74 59.8547 1840.76 59.812C1840.78 59.7693 1840.8 59.7222 1840.81 59.6733C1840.81 59.6245 1840.81 59.5748 1840.8 59.5273C1839.92 56.2366 1836.39 55.4738 1834.5 55.0642C1834.06 54.969 1833.68 54.8872 1833.5 54.8062C1832.1 54.2001 1831.24 53.2768 1830.94 52.0571C1832.24 50.9447 1833.32 49.2285 1833.94 47.3038C1834.6 46.4487 1834.96 45.5681 1834.96 44.8158C1834.96 44.314 1834.8 43.8954 1834.48 43.5684C1834.3 39.3649 1831.3 36.0548 1827.58 36.0015L1827.46 36C1823.81 36.0195 1820.8 39.2426 1820.53 43.3734C1820.06 43.7184 1819.82 44.2022 1819.82 44.8165C1819.82 45.7039 1820.33 46.7653 1821.2 47.7389C1821.81 49.4063 1822.75 50.8712 1823.87 51.8966C1823.57 53.1208 1822.71 54.0471 1821.31 54.6539C1821.13 54.7327 1820.77 54.819 1820.35 54.918C1818.45 55.371 1814.9 56.2149 1814.01 59.5288C1813.99 59.6248 1814 59.7272 1814.05 59.8133C1814.1 59.8993 1814.18 59.9621 1814.28 59.9878V59.9878Z" fill="white" stroke="white" stroke-width="0.5625"/>
<circle cx="1753" cy="48" r="19.25" stroke="white" stroke-width="1.5"/>
<path d="M1753 38.25V40.5M1747 48.75C1747 45 1747.75 40.5 1753 40.5C1758.25 40.5 1759 45 1759 48.75C1759 52.5 1761.25 54.75 1761.25 54.75H1744.75C1744.75 54.75 1747 52.5 1747 48.75ZM1756 54.75C1756 54.75 1756 57.75 1753 57.75C1750 57.75 1750 54.75 1750 54.75H1756Z" stroke="white" stroke-width="1.125" stroke-linecap="round" stroke-linejoin="round"/>
<path d="M1679 58C1684.52 58 1689 53.5228 1689 48C1689 42.4772 1684.52 38 1679 38C1673.48 38 1669 42.4772 1669 48C1669 53.5228 1673.48 58 1679 58Z" stroke="white" stroke-linecap="round" stroke-linejoin="round"/>
<path d="M1669 48H1689" stroke="white" stroke-linecap="round" stroke-linejoin="round"/>
<path d="M1679 38C1681.5 40.7384 1682.92 44.292 1683 48C1682.92 51.708 1681.5 55.2616 1679 58C1676.5 55.2616 1675.08 51.708 1675 48C1675.08 44.292 1676.5 40.7384 1679 38V38Z" stroke="white" stroke-linecap="round" stroke-linejoin="round"/>
<path d="M65.9174 76.1474C65.9174 77.2252 65.045 78.1489 63.916 78.1489C62.8383 78.1489 61.9658 77.2252 61.9658 76.1474V49.8718C61.9658 48.7941 62.8383 47.8703 63.916 47.8703C65.045 47.8703 65.9174 48.7941 65.9174 49.8718V51.2574C67.2517 48.9993 70.1256 47.665 72.9482 47.665C78.4394 47.665 83.0069 51.8219 83.0069 58.2369C83.0069 64.6005 78.4394 68.6548 72.9482 68.6548C70.1256 68.6548 67.2517 67.5257 65.9174 65.2164V76.1474V76.1474ZM72.5377 64.8571C76.1814 64.8571 79.0553 62.2911 79.0553 58.2882C79.0553 54.2853 76.1814 51.514 72.5377 51.514C68.9966 51.514 65.9688 54.0287 65.9688 58.2882C65.9688 62.5991 69.3045 64.8571 72.5377 64.8571Z" fill="#F6F6F7"/>
<path d="M93.937 51.4622C90.0367 51.4622 88.4457 55.619 88.4457 60.9563V66.4988C88.4457 67.5765 87.5733 68.5003 86.4443 68.5003C85.3666 68.5003 84.4941 67.5765 84.4941 66.4988V49.9226C84.4941 48.8449 85.3666 47.9211 86.4443 47.9211C87.5733 47.9211 88.4457 48.8449 88.4457 49.9226V52.6938C89.4721 49.1528 91.4223 47.7158 94.0396 47.7158C95.5279 47.7158 97.9399 48.0237 97.5807 50.1278C97.3754 51.3595 96.2463 51.6161 94.8607 51.5135C94.5528 51.4622 94.1936 51.4622 93.937 51.4622Z" fill="#F6F6F7"/>
<path d="M114.414 59.6733H99.5829C100.045 63.0091 102.662 65.1645 106.1 65.1645C108.513 65.1645 109.847 64.5487 111.232 63.0604C111.951 62.2393 113.08 61.9827 113.85 62.5472C114.62 63.163 114.774 64.2921 114.209 65.0105C112.259 67.5252 109.231 68.7056 105.998 68.7056C100.25 68.7056 95.6826 64.5487 95.6826 58.1337C95.6826 51.7701 100.25 47.7158 105.998 47.7158C111.746 47.7158 116.005 51.7701 116.005 58.1337C115.954 59.0061 115.235 59.6733 114.414 59.6733ZM112.105 56.5941C111.643 53.2583 109.231 51.2056 105.998 51.2056C102.662 51.2056 100.096 53.207 99.6342 56.5941H112.105Z" fill="#F6F6F7"/>
<path d="M134.276 39.6587C134.276 38.581 135.148 37.6572 136.277 37.6572C137.355 37.6572 138.227 38.581 138.227 39.6587V66.4476C138.227 67.5253 137.355 68.449 136.277 68.449C135.148 68.449 134.276 67.5253 134.276 66.4476V65.1646C132.941 67.4226 130.067 68.7056 127.245 68.7056C121.754 68.7056 117.032 64.5487 117.032 58.1851C117.032 51.7701 121.651 47.7159 127.194 47.7159C130.119 47.7159 132.941 48.8962 134.276 51.1543V39.6587V39.6587ZM127.553 51.5135C123.909 51.5135 121.035 54.0795 121.035 58.0825C121.035 62.0341 123.909 64.8053 127.553 64.8053C131.145 64.8053 134.224 62.342 134.224 58.0825C134.276 53.8229 130.786 51.5135 127.553 51.5135Z" fill="#F6F6F7"/>
<path d="M144.897 49.8716C144.897 48.7939 144.025 47.8701 142.896 47.8701C141.818 47.8701 140.946 48.7939 140.946 49.8716V66.4478C140.946 67.5255 141.818 68.4493 142.896 68.4493C144.025 68.4493 144.897 67.5255 144.897 66.4478V49.8716Z" fill="#F6F6F7"/>
<path d="M163.938 65.1645C162.603 67.4226 159.678 68.7056 156.856 68.7056C151.364 68.7056 146.643 64.5487 146.643 58.185C146.643 51.7701 151.364 47.7158 156.856 47.7158C159.678 47.7158 162.603 48.8962 163.938 51.1542V49.9226C163.938 48.8449 164.81 47.9211 165.888 47.9211C167.017 47.9211 167.889 48.8449 167.889 49.9226V66.4988C167.889 67.5765 167.017 68.5003 165.888 68.5003C164.81 68.5003 163.938 67.5765 163.938 66.4988V65.1645ZM157.266 51.5135C153.623 51.5135 150.697 54.0795 150.697 58.0824C150.697 62.034 153.623 64.8053 157.266 64.8053C160.859 64.8053 163.938 62.3419 163.938 58.0824C163.938 53.8229 160.448 51.5135 157.266 51.5135Z" fill="#F6F6F7"/>
<path d="M58.7317 59.6733H43.9003C44.3622 63.0091 46.9795 65.1645 50.4179 65.1645C52.8299 65.1645 54.1642 64.5487 55.5499 63.0604C56.2683 62.2393 57.3974 61.9827 58.1672 62.5472C58.9369 63.163 59.0909 64.2921 58.5264 65.0105C56.5762 67.5252 53.5484 68.7056 50.3153 68.7056C44.5675 68.7056 40 64.5487 40 58.1337C40 51.7701 44.5675 47.7158 50.3153 47.7158C56.0631 47.7158 60.3226 51.7701 60.3226 58.1337C60.3226 59.0061 59.5528 59.6733 58.7317 59.6733ZM56.4223 56.5941C55.9604 53.2583 53.5484 51.2056 50.3153 51.2056C46.9795 51.2056 44.4135 53.207 43.9516 56.5941H56.4223Z" fill="#F6F6F7"/>
<path d="M120.006 46.0724C121.99 46.0724 123.599 44.4641 123.599 42.4801C123.599 40.4961 121.99 38.8877 120.006 38.8877C118.022 38.8877 116.414 40.4961 116.414 42.4801C116.414 44.4641 118.022 46.0724 120.006 46.0724Z" fill="#FDFDFD"/>
<path d="M128.628 45.0979C130.074 45.0979 131.245 43.9261 131.245 42.4806C131.245 41.0351 130.074 39.8633 128.628 39.8633C127.183 39.8633 126.011 41.0351 126.011 42.4806C126.011 43.9261 127.183 45.0979 128.628 45.0979Z" fill="#FDFDFD"/>
<path d="M165.783 46.0724C167.767 46.0724 169.376 44.4641 169.376 42.4801C169.376 40.4961 167.767 38.8877 165.783 38.8877C163.799 38.8877 162.191 40.4961 162.191 42.4801C162.191 44.4641 163.799 46.0724 165.783 46.0724Z" fill="#FDFDFD"/>
<path d="M157.213 45.0979C158.658 45.0979 159.83 43.9261 159.83 42.4806C159.83 41.0351 158.658 39.8633 157.213 39.8633C155.767 39.8633 154.595 41.0351 154.595 42.4806C154.595 43.9261 155.767 45.0979 157.213 45.0979Z" fill="#FDFDFD"/>
<path d="M162.757 34.6291C164.741 34.6291 166.349 33.0207 166.349 31.0367C166.349 29.0527 164.741 27.4443 162.757 27.4443C160.773 27.4443 159.165 29.0527 159.165 31.0367C159.165 33.0207 160.773 34.6291 162.757 34.6291Z" fill="#FDFDFD"/>
<path d="M155.263 37.9651C156.708 37.9651 157.88 36.7933 157.88 35.3478C157.88 33.9023 156.708 32.7305 155.263 32.7305C153.817 32.7305 152.646 33.9023 152.646 35.3478C152.646 36.7933 153.817 37.9651 155.263 37.9651Z" fill="#FDFDFD"/>
<path d="M148.951 40.9412C150 40.9412 150.85 40.0911 150.85 39.0424C150.85 37.9937 150 37.1436 148.951 37.1436C147.902 37.1436 147.052 37.9937 147.052 39.0424C147.052 40.0911 147.902 40.9412 148.951 40.9412Z" fill="#FDFDFD"/>
<path d="M154.339 26.2639C156.323 26.2639 157.931 24.6555 157.931 22.6715C157.931 20.6875 156.323 19.0791 154.339 19.0791C152.355 19.0791 150.747 20.6875 150.747 22.6715C150.747 24.6555 152.355 26.2639 154.339 26.2639Z" fill="#FDFDFD"/>
<path d="M150.028 32.7307C151.473 32.7307 152.645 31.5589 152.645 30.1134C152.645 28.6679 151.473 27.4961 150.028 27.4961C148.582 27.4961 147.411 28.6679 147.411 30.1134C147.411 31.5589 148.582 32.7307 150.028 32.7307Z" fill="#FDFDFD"/>
<path d="M142.895 23.1848C144.879 23.1848 146.487 21.5764 146.487 19.5924C146.487 17.6084 144.879 16 142.895 16C140.911 16 139.302 17.6084 139.302 19.5924C139.302 21.5764 140.911 23.1848 142.895 23.1848Z" fill="#FDFDFD"/>
<path d="M142.894 30.8313C144.339 30.8313 145.511 29.6595 145.511 28.214C145.511 26.7685 144.339 25.5967 142.894 25.5967C141.448 25.5967 140.276 26.7685 140.276 28.214C140.276 29.6595 141.448 30.8313 142.894 30.8313Z" fill="#FDFDFD"/>
<path d="M142.895 37.4519C143.944 37.4519 144.794 36.6018 144.794 35.5531C144.794 34.5044 143.944 33.6543 142.895 33.6543C141.846 33.6543 140.996 34.5044 140.996 35.5531C140.996 36.6018 141.846 37.4519 142.895 37.4519Z" fill="#FDFDFD"/>
<path d="M131.451 26.2639C133.435 26.2639 135.044 24.6555 135.044 22.6715C135.044 20.6875 133.435 19.0791 131.451 19.0791C129.467 19.0791 127.859 20.6875 127.859 22.6715C127.859 24.6555 129.467 26.2639 131.451 26.2639Z" fill="#FDFDFD"/>
<path d="M135.762 32.7307C137.207 32.7307 138.379 31.5589 138.379 30.1134C138.379 28.6679 137.207 27.4961 135.762 27.4961C134.316 27.4961 133.145 28.6679 133.145 30.1134C133.145 31.5589 134.316 32.7307 135.762 32.7307Z" fill="#FDFDFD"/>
<path d="M123.087 34.6291C125.071 34.6291 126.679 33.0207 126.679 31.0367C126.679 29.0527 125.071 27.4443 123.087 27.4443C121.103 27.4443 119.495 29.0527 119.495 31.0367C119.495 33.0207 121.103 34.6291 123.087 34.6291Z" fill="#FDFDFD"/>
<path d="M130.527 37.9651C131.973 37.9651 133.145 36.7933 133.145 35.3478C133.145 33.9023 131.973 32.7305 130.527 32.7305C129.082 32.7305 127.91 33.9023 127.91 35.3478C127.91 36.7933 129.082 37.9651 130.527 37.9651Z" fill="#FDFDFD"/>
<path d="M142.947 45.6115C144.648 45.6115 146.027 44.2329 146.027 42.5323C146.027 40.8317 144.648 39.4531 142.947 39.4531C141.247 39.4531 139.868 40.8317 139.868 42.5323C139.868 44.2329 141.247 45.6115 142.947 45.6115Z" fill="#EC008C"/>
<path d="M181.231 48.1777H187.544V49.0502H182.309V51.5648H187.236V52.4373H182.309V55.5164H187.749V56.3889H181.283V48.1777H181.231Z" fill="#F7F7F7"/>
<path d="M188.466 50.2306H189.441V51.3083C189.852 50.5385 190.673 50.1279 191.597 50.1279C193.136 50.1279 193.855 51.0517 193.855 52.6939V56.4916H192.88V52.8479C192.88 51.7188 192.469 51.103 191.34 51.103C190.211 51.103 189.441 51.9754 189.441 53.0018V56.4916H188.466V50.2306Z" fill="#F7F7F7"/>
<path d="M194.881 48.0752H195.856V51.3083C196.267 50.5385 197.088 50.128 198.011 50.128C199.551 50.128 200.269 51.0517 200.269 52.694V56.4916H199.294V52.8479C199.294 51.7189 198.832 51.1031 197.703 51.1031C196.574 51.1031 195.856 52.0268 195.856 53.0019V56.5429H194.881V48.0752V48.0752Z" fill="#F7F7F7"/>
<path d="M201.04 53.3611C201.04 51.5136 202.271 50.1279 203.965 50.1279C204.94 50.1279 205.864 50.5385 206.325 51.3596V50.2819H207.301V56.5429H206.325V55.4139C205.864 56.235 204.991 56.6455 203.965 56.6455C202.271 56.5942 201.04 55.1573 201.04 53.3611ZM206.325 53.3611C206.325 52.0781 205.402 51.0517 204.221 51.0517C202.99 51.0517 202.066 52.0268 202.066 53.3611C202.066 54.6954 202.99 55.6705 204.221 55.6705C205.402 55.6705 206.325 54.6954 206.325 53.3611Z" fill="#F7F7F7"/>
<path d="M208.431 50.2306H209.406V51.3083C209.816 50.5385 210.637 50.1279 211.561 50.1279C213.101 50.1279 213.819 51.0517 213.819 52.6939V56.4916H212.844V52.8479C212.844 51.7188 212.434 51.103 211.305 51.103C210.176 51.103 209.406 51.9754 209.406 53.0018V56.4916H208.431V50.2306Z" fill="#F7F7F7"/>
<path d="M214.589 53.3611C214.589 51.5649 216.026 50.1279 217.873 50.1279C218.746 50.1279 219.516 50.4359 220.08 50.949L219.464 51.6162C219.054 51.257 218.54 51.0517 217.873 51.0517C216.59 51.0517 215.564 52.0268 215.564 53.3611C215.564 54.6441 216.488 55.6705 217.873 55.6705C218.592 55.6705 219.208 55.4139 219.669 54.952L220.234 55.6705C219.618 56.235 218.797 56.5942 217.873 56.5942C216.077 56.5942 214.589 55.2086 214.589 53.3611Z" fill="#F7F7F7"/>
<path d="M220.797 48.4855C220.797 48.1263 221.054 47.8184 221.465 47.8184C221.824 47.8184 222.132 48.1263 222.132 48.4855C222.132 48.8448 221.824 49.1014 221.465 49.1014C221.054 49.1527 220.797 48.8448 220.797 48.4855ZM220.951 50.2304H221.926V56.4914H220.951V50.2304Z" fill="#F7F7F7"/>
<path d="M223.057 50.2306H224.032V51.3083C224.442 50.5385 225.263 50.1279 226.187 50.1279C227.727 50.1279 228.445 51.0517 228.445 52.6939V56.4916H227.47V52.8479C227.47 51.7188 227.06 51.103 225.931 51.103C224.801 51.103 224.032 51.9754 224.032 53.0018V56.4916H223.057V50.2306Z" fill="#F7F7F7"/>
<path d="M229.831 57.4666L230.242 56.8508C230.755 57.364 231.473 57.6206 232.192 57.6206C233.27 57.6206 234.45 56.9534 234.45 55.1059V54.9007C234.193 55.6191 233.321 56.1836 232.141 56.1836C230.447 56.1836 229.215 54.8493 229.215 53.1558C229.215 51.4622 230.396 50.1279 232.141 50.1279C233.218 50.1279 234.193 50.5898 234.501 51.4109V50.2819H235.425V55.1059C235.425 57.6206 233.629 58.3904 232.243 58.3904C231.268 58.3904 230.396 58.0312 229.831 57.4666ZM234.45 53.0531C234.45 51.8728 233.475 50.949 232.295 50.949C231.114 50.949 230.19 51.8728 230.19 53.1045C230.19 54.3361 231.114 55.2599 232.295 55.2599C233.526 55.3112 234.45 54.3875 234.45 53.0531Z" fill="#F7F7F7"/>
<path d="M238.864 50.2306H239.788V51.3083C240.249 50.4872 241.173 50.1279 242.148 50.1279C243.893 50.1279 245.073 51.5649 245.073 53.3611C245.073 55.1573 243.842 56.5942 242.148 56.5942C241.173 56.5942 240.249 56.1836 239.788 55.3625V58.2364H238.864V50.2306ZM244.15 53.3611C244.15 52.0268 243.226 51.0517 241.994 51.0517C240.814 51.0517 239.89 52.0268 239.89 53.3611C239.89 54.6954 240.814 55.6705 241.994 55.6705C243.226 55.6705 244.15 54.6954 244.15 53.3611Z" fill="#F7F7F7"/>
<path d="M245.996 50.2306H246.971V51.5649C247.33 50.7438 248.152 50.1279 249.383 50.1279V51.2056C247.946 51.2056 246.971 52.0268 246.971 53.5663V56.5429H245.996V50.2306Z" fill="#F7F7F7"/>
<path d="M249.641 53.3611C249.641 51.5649 250.975 50.1279 252.771 50.1279C254.413 50.1279 255.748 51.5649 255.748 53.3611C255.748 53.5663 255.748 53.7203 255.748 53.7203H250.667C250.821 54.952 251.796 55.7218 252.925 55.7218C253.644 55.7218 254.311 55.4652 254.824 55.0546L255.234 55.7731C254.567 56.2863 253.746 56.5942 252.874 56.5942C251.129 56.5942 249.641 55.3625 249.641 53.3611ZM254.773 52.9505C254.67 51.8215 253.798 50.949 252.72 50.949C251.642 50.949 250.77 51.7702 250.667 52.9505H254.773Z" fill="#F7F7F7"/>
<path d="M256.362 53.3611C256.362 51.5649 257.799 50.1279 259.647 50.1279C260.519 50.1279 261.289 50.4359 261.854 50.949L261.238 51.6162C260.827 51.257 260.314 51.0517 259.647 51.0517C258.364 51.0517 257.337 52.0268 257.337 53.3611C257.337 54.6441 258.261 55.6705 259.647 55.6705C260.365 55.6705 260.981 55.4139 261.443 54.952L262.007 55.6705C261.392 56.235 260.571 56.5942 259.647 56.5942C257.799 56.5942 256.362 55.2086 256.362 53.3611Z" fill="#F7F7F7"/>
<path d="M262.521 48.4855C262.521 48.1263 262.778 47.8184 263.188 47.8184C263.547 47.8184 263.855 48.1263 263.855 48.4855C263.855 48.8448 263.547 49.1014 263.188 49.1014C262.829 49.1527 262.521 48.8448 262.521 48.4855ZM262.675 50.2304H263.65V56.4914H262.675V50.2304Z" fill="#F7F7F7"/>
<path d="M264.471 55.6705L264.882 54.9007C265.344 55.3625 266.011 55.7218 266.935 55.7218C267.807 55.7218 268.474 55.3112 268.474 54.7467C268.474 54.0795 267.704 53.9256 266.986 53.7203C265.805 53.4124 264.779 53.1045 264.779 51.9241C264.779 50.7951 265.959 50.1279 266.986 50.1279C267.858 50.1279 268.474 50.3332 269.09 50.7951L268.679 51.5649C268.166 51.2056 267.602 51.0517 266.935 51.0517C266.267 51.0517 265.703 51.4109 265.703 51.8728C265.703 52.4886 266.37 52.6426 267.14 52.7965C268.269 53.0531 269.449 53.4637 269.449 54.6954C269.449 56.0297 268.115 56.5942 266.883 56.5942C265.652 56.5942 264.83 56.0297 264.471 55.6705Z" fill="#F7F7F7"/>
<path d="M270.168 48.4855C270.168 48.1263 270.425 47.8184 270.836 47.8184C271.195 47.8184 271.503 48.1263 271.503 48.4855C271.503 48.8448 271.195 49.1014 270.836 49.1014C270.425 49.1527 270.168 48.8448 270.168 48.4855ZM270.322 50.2304H271.297V56.4914H270.322V50.2304Z" fill="#F7F7F7"/>
<path d="M272.169 53.3611C272.169 51.5649 273.606 50.1279 275.454 50.1279C277.301 50.1279 278.738 51.5649 278.738 53.3611C278.738 55.1573 277.301 56.5942 275.454 56.5942C273.606 56.5942 272.169 55.1573 272.169 53.3611ZM277.712 53.3611C277.712 52.0268 276.737 51.0517 275.454 51.0517C274.171 51.0517 273.196 52.0268 273.196 53.3611C273.196 54.6441 274.171 55.6705 275.454 55.6705C276.737 55.6705 277.712 54.6954 277.712 53.3611Z" fill="#F7F7F7"/>
<path d="M279.611 50.2306H280.586V51.3083C280.996 50.5385 281.818 50.1279 282.741 50.1279C284.281 50.1279 284.999 51.0517 284.999 52.6939V56.4916H284.024V52.8479C284.024 51.7188 283.614 51.103 282.485 51.103C281.356 51.103 280.586 51.9754 280.586 53.0018V56.4916H279.611V50.2306Z" fill="#F7F7F7"/>
<path d="M180.82 65.4206C180.82 63.6244 182.257 62.1875 184.105 62.1875C184.977 62.1875 185.747 62.4954 186.312 63.0086L185.696 63.6758C185.285 63.3165 184.772 63.1112 184.105 63.1112C182.822 63.1112 181.795 64.0863 181.795 65.4206C181.795 66.7036 182.719 67.73 184.105 67.73C184.823 67.73 185.439 67.4734 185.901 67.0115L186.465 67.73C185.85 68.2945 185.029 68.6538 184.105 68.6538C182.257 68.6538 180.82 67.2681 180.82 65.4206Z" fill="#F7F7F7"/>
<path d="M186.774 65.4206C186.774 63.5731 188.006 62.1875 189.7 62.1875C190.675 62.1875 191.598 62.5981 192.06 63.4192V62.3415H193.035V68.6025H192.06V67.5247C191.598 68.3459 190.726 68.7564 189.7 68.7564C187.955 68.6538 186.774 67.2168 186.774 65.4206ZM192.06 65.4206C192.06 64.1376 191.137 63.1112 189.956 63.1112C188.725 63.1112 187.801 64.0863 187.801 65.4206C187.801 66.7549 188.725 67.73 189.956 67.73C191.137 67.73 192.06 66.7549 192.06 65.4206Z" fill="#F7F7F7"/>
<path d="M194.164 62.2901H195.139V63.3678C195.549 62.5981 196.37 62.1875 197.294 62.1875C198.834 62.1875 199.552 63.1113 199.552 64.7535V68.5511H198.577V64.9074C198.577 63.7784 198.167 63.1626 197.037 63.1626C195.908 63.1626 195.139 64.035 195.139 65.0614V68.5511H194.164V62.2901Z" fill="#F7F7F7"/>
<path d="M200.322 65.4206C200.322 63.6244 201.759 62.1875 203.606 62.1875C204.479 62.1875 205.248 62.4954 205.813 63.0086L205.197 63.6758C204.787 63.3165 204.273 63.1112 203.606 63.1112C202.323 63.1112 201.297 64.0863 201.297 65.4206C201.297 66.7036 202.221 67.73 203.606 67.73C204.325 67.73 204.941 67.4734 205.402 67.0115L205.967 67.73C205.351 68.2945 204.53 68.6538 203.606 68.6538C201.759 68.6538 200.322 67.2681 200.322 65.4206Z" fill="#F7F7F7"/>
<path d="M206.276 65.4206C206.276 63.6244 207.61 62.1875 209.406 62.1875C211.049 62.1875 212.383 63.6244 212.383 65.4206C212.383 65.6259 212.383 65.7799 212.383 65.7799H207.302C207.456 67.0115 208.431 67.7813 209.56 67.7813C210.279 67.7813 210.946 67.5247 211.459 67.1142L211.87 67.8327C211.203 68.3459 210.381 68.6538 209.509 68.6538C207.764 68.6538 206.276 67.4221 206.276 65.4206ZM211.408 65.0101C211.305 63.881 210.433 63.0086 209.355 63.0086C208.277 63.0086 207.405 63.8297 207.302 65.0101H211.408Z" fill="#F7F7F7"/>
<path d="M213.254 62.2901H214.229V63.6244C214.588 62.8033 215.409 62.1875 216.641 62.1875V63.2652C215.204 63.2652 214.229 64.0863 214.229 65.6259V68.6025H213.254V62.2901Z" fill="#F7F7F7"/>
<path d="M219.31 65.4207C219.31 63.5732 220.542 62.1876 222.235 62.1876C223.21 62.1876 224.134 62.5981 224.596 63.4192V60.1348H225.571V68.5512H224.647V67.4735C224.185 68.2946 223.262 68.7051 222.287 68.7051C220.49 68.6538 219.31 67.2169 219.31 65.4207ZM224.596 65.4207C224.596 64.1377 223.672 63.1113 222.492 63.1113C221.26 63.1113 220.336 64.0864 220.336 65.4207C220.336 66.755 221.26 67.7301 222.492 67.7301C223.672 67.7301 224.596 66.755 224.596 65.4207Z" fill="#F7F7F7"/>
<path d="M226.547 60.5461C226.547 60.1868 226.803 59.8789 227.214 59.8789C227.573 59.8789 227.881 60.1868 227.881 60.5461C227.881 60.9053 227.573 61.1619 227.214 61.1619C226.803 61.2132 226.547 60.9053 226.547 60.5461ZM226.701 62.2909H227.676V68.5519H226.701V62.2909Z" fill="#F7F7F7"/>
<path d="M228.547 65.4206C228.547 63.5731 229.779 62.1875 231.473 62.1875C232.448 62.1875 233.371 62.5981 233.833 63.4192V62.3415H234.808V68.6025H233.833V67.5247C233.371 68.3459 232.499 68.7564 231.473 68.7564C229.779 68.6538 228.547 67.2168 228.547 65.4206ZM233.833 65.4206C233.833 64.1376 232.91 63.1112 231.729 63.1112C230.497 63.1112 229.574 64.0863 229.574 65.4206C229.574 66.7549 230.497 67.73 231.729 67.73C232.91 67.73 233.833 66.7549 233.833 65.4206Z" fill="#F7F7F7"/>
<path d="M236.296 69.5262L236.707 68.9104C237.22 69.4236 237.938 69.6802 238.657 69.6802C239.734 69.6802 240.915 69.013 240.915 67.1655V66.9602C240.658 67.6787 239.786 68.2432 238.605 68.2432C236.912 68.2432 235.68 66.9089 235.68 65.2154C235.68 63.5218 236.861 62.1875 238.605 62.1875C239.683 62.1875 240.658 62.6494 240.966 63.4705V62.3415H241.89V67.1655C241.89 69.6802 240.094 70.45 238.708 70.45C237.733 70.45 236.912 70.0907 236.296 69.5262ZM240.966 65.1127C240.966 63.9324 239.991 63.0086 238.811 63.0086C237.63 63.0086 236.707 63.9324 236.707 65.164C236.707 66.3957 237.63 67.3195 238.811 67.3195C240.042 67.3708 240.966 66.447 240.966 65.1127Z" fill="#F7F7F7"/>
<path d="M243.071 62.2901H244.046V63.3678C244.457 62.5981 245.278 62.1875 246.202 62.1875C247.741 62.1875 248.46 63.1113 248.46 64.7535V68.5511H247.485V64.9074C247.485 63.7784 247.074 63.1626 245.945 63.1626C244.816 63.1626 244.046 64.035 244.046 65.0614V68.5511H243.071V62.2901Z" fill="#F7F7F7"/>
<path d="M249.23 65.4206C249.23 63.6244 250.667 62.1875 252.514 62.1875C254.362 62.1875 255.799 63.6244 255.799 65.4206C255.799 67.2168 254.362 68.6538 252.514 68.6538C250.667 68.6538 249.23 67.2168 249.23 65.4206ZM254.772 65.4206C254.772 64.0863 253.797 63.1112 252.514 63.1112C251.231 63.1112 250.256 64.0863 250.256 65.4206C250.256 66.7036 251.231 67.73 252.514 67.73C253.797 67.73 254.772 66.7549 254.772 65.4206Z" fill="#F7F7F7"/>
<path d="M256.312 67.73L256.723 66.9602C257.185 67.4221 257.852 67.7813 258.776 67.7813C259.648 67.7813 260.315 67.3708 260.315 66.8063C260.315 66.1391 259.546 65.9852 258.827 65.7799C257.647 65.472 256.62 65.164 256.62 63.9837C256.62 62.8547 257.801 62.1875 258.827 62.1875C259.7 62.1875 260.315 62.3928 260.931 62.8546L260.521 63.6244C260.008 63.2652 259.443 63.1112 258.776 63.1112C258.109 63.1112 257.544 63.4705 257.544 63.9324C257.544 64.5482 258.211 64.7022 258.981 64.8561C260.11 65.1127 261.291 65.5233 261.291 66.7549C261.291 68.0893 259.956 68.6538 258.725 68.6538C257.493 68.6538 256.672 68.0893 256.312 67.73Z" fill="#F7F7F7"/>
<path d="M262.52 66.6527V63.1117H261.597V62.2906H262.52V60.9563L263.496 60.751V62.2906H265.6V63.1117H263.496V66.7041C263.496 67.5765 263.855 67.7818 264.368 67.7818C264.932 67.7818 265.394 67.4225 265.394 67.4225L265.702 68.1923C265.446 68.3463 264.932 68.6542 264.265 68.6542C263.136 68.6542 262.52 68.141 262.52 66.6527Z" fill="#F7F7F7"/>
<path d="M266.165 60.5461C266.165 60.1868 266.422 59.8789 266.832 59.8789C267.191 59.8789 267.499 60.1868 267.499 60.5461C267.499 60.9053 267.191 61.1619 266.832 61.1619C266.473 61.2132 266.165 60.9053 266.165 60.5461ZM266.319 62.2909H267.294V68.5519H266.319V62.2909Z" fill="#F7F7F7"/>
<path d="M268.166 65.4206C268.166 63.6244 269.603 62.1875 271.45 62.1875C272.323 62.1875 273.093 62.4954 273.657 63.0086L273.041 63.6758C272.631 63.3165 272.118 63.1112 271.45 63.1112C270.167 63.1112 269.141 64.0863 269.141 65.4206C269.141 66.7036 270.065 67.73 271.45 67.73C272.169 67.73 272.785 67.4734 273.247 67.0115L273.811 67.73C273.195 68.2945 272.374 68.6538 271.45 68.6538C269.654 68.6538 268.166 67.2681 268.166 65.4206Z" fill="#F7F7F7"/>
<path d="M274.17 67.73L274.58 66.9602C275.042 67.4221 275.71 67.7813 276.633 67.7813C277.506 67.7813 278.173 67.3708 278.173 66.8063C278.173 66.1391 277.403 65.9852 276.685 65.7799C275.504 65.472 274.478 65.164 274.478 63.9837C274.478 62.8547 275.658 62.1875 276.685 62.1875C277.557 62.1875 278.173 62.3928 278.789 62.8546L278.378 63.6244C277.865 63.2652 277.3 63.1112 276.633 63.1112C275.966 63.1112 275.402 63.4705 275.402 63.9324C275.402 64.5482 276.069 64.7022 276.839 64.8561C277.968 65.1127 279.148 65.5233 279.148 66.7549C279.148 68.0893 277.814 68.6538 276.582 68.6538C275.35 68.6538 274.529 68.0893 274.17 67.73Z" fill="#F7F7F7"/>
<defs>
<filter id="filter0_d" x="0" y="0" width="1940" height="103" filterUnits="userSpaceOnUse" color-interpolation-filters="sRGB">
<feFlood flood-opacity="0" result="BackgroundImageFix"/>
<feColorMatrix in="SourceAlpha" type="matrix" values="0 0 0 0 0 0 0 0 0 0 0 0 0 0 0 0 0 0 127 0"/>
<feOffset dy="4"/>
<feGaussianBlur stdDeviation="5"/>
<feColorMatrix type="matrix" values="0 0 0 0 0 0 0 0 0 0 0 0 0 0 0 0 0 0 0.1 0"/>
<feBlend mode="normal" in2="BackgroundImageFix" result="effect1_dropShadow"/>
<feBlend mode="normal" in="SourceGraphic" in2="effect1_dropShadow" result="shape"/>
</filter>
<linearGradient id="paint0_linear" x1="111.999" y1="-237.998" x2="2063.5" y2="404.001" gradientUnits="userSpaceOnUse">
<stop stop-color="#302550"/>
<stop offset="0.476234" stop-color="#302550"/>
<stop offset="1" stop-color="#EE008C"/>
<stop offset="1" stop-color="#AE0D78"/>
</linearGradient>
</defs>
</svg>
