<svg width="40" height="40" viewBox="0 0 40 40" fill="none" xmlns="http://www.w3.org/2000/svg">
<circle cx="20" cy="20" r="19.25" stroke="white" stroke-width="1.5"/>
<path d="M20 30C25.5228 30 30 25.5228 30 20C30 14.4772 25.5228 10 20 10C14.4772 10 10 14.4772 10 20C10 25.5228 14.4772 30 20 30Z" stroke="white" stroke-linecap="round" stroke-linejoin="round"/>
<path d="M10 20H30" stroke="white" stroke-linecap="round" stroke-linejoin="round"/>
<path d="M19.9995 10C22.5008 12.7384 23.9223 16.292 23.9995 20C23.9223 23.708 22.5008 27.2616 19.9995 30C17.4982 27.2616 16.0768 23.708 15.9995 20C16.0768 16.292 17.4982 12.7384 19.9995 10V10Z" stroke="white" stroke-linecap="round" stroke-linejoin="round"/>
</svg>
