<svg width="40" height="40" viewBox="0 0 40 40" fill="none" xmlns="http://www.w3.org/2000/svg">
<circle cx="20" cy="20" r="20" fill="white"/>
<path d="M7.27822 31.9878C7.37428 32.0128 7.47634 31.999 7.56227 31.9493C7.6482 31.8996 7.71107 31.818 7.73727 31.7223C8.50986 28.8397 11.6497 28.0926 13.5265 27.6455C13.9968 27.5338 14.368 27.4453 14.6096 27.341C16.7473 26.4132 17.4442 24.9205 17.6527 23.8314C17.6651 23.7666 17.6602 23.6996 17.6384 23.6373C17.6167 23.575 17.5789 23.5196 17.5289 23.4766C16.4158 22.5157 15.4767 21.0733 14.8841 19.4141C14.8674 19.3665 14.8411 19.3228 14.8069 19.2858C14.023 18.4337 13.573 17.5329 13.573 16.815C13.573 16.3957 13.7312 16.1144 14.0875 15.9022C14.1409 15.8703 14.1855 15.8256 14.2173 15.7722C14.2491 15.7188 14.2672 15.6583 14.2698 15.5961C14.4356 11.7752 17.1569 8.76734 20.4948 8.74784L20.575 8.75309C23.9294 8.79959 26.6335 11.872 26.7302 15.7469C26.7316 15.7999 26.7442 15.8519 26.7672 15.8997C26.7902 15.9474 26.8232 15.9897 26.8638 16.0237C27.0985 16.2225 27.2081 16.4745 27.2081 16.8165C27.2081 17.4174 26.8878 18.1562 26.3072 18.8958C26.2795 18.9314 26.2582 18.9715 26.2442 19.0143C25.6441 20.9165 24.567 22.596 23.2903 23.6236C23.2375 23.6663 23.1971 23.7225 23.1736 23.7863C23.1501 23.8501 23.1443 23.9191 23.1568 23.9859C23.3654 25.0742 24.0622 26.5662 26.1999 27.4955C26.4527 27.605 26.845 27.6906 27.3423 27.7978C29.2003 28.1999 32.3094 28.8742 33.0722 31.7223C33.085 31.7699 33.1071 31.8144 33.1371 31.8535C33.1672 31.8926 33.2046 31.9253 33.2473 31.9499C33.29 31.9745 33.3371 31.9904 33.386 31.9968C33.4348 32.0032 33.4845 31.9999 33.532 31.9871C33.5796 31.9743 33.6242 31.9522 33.6633 31.9222C33.7023 31.8921 33.7351 31.8547 33.7597 31.812C33.7842 31.7693 33.8002 31.7222 33.8066 31.6733C33.8129 31.6245 33.8096 31.5748 33.7968 31.5273C32.9155 28.2366 29.3931 27.4738 27.5013 27.0642C27.0625 26.969 26.6837 26.8872 26.4992 26.8062C25.1041 26.2001 24.2445 25.2768 23.9407 24.0571C25.2361 22.9447 26.3199 21.2285 26.9395 19.3038C27.5973 18.4487 27.9589 17.5681 27.9589 16.8158C27.9589 16.314 27.7969 15.8954 27.4758 15.5684C27.2973 11.3649 24.2977 8.05476 20.575 8.0015L20.4633 8C16.8081 8.0195 13.7957 11.2426 13.5325 15.3734C13.0629 15.7184 12.8244 16.2022 12.8244 16.8165C12.8244 17.7039 13.3262 18.7653 14.2045 19.7389C14.8114 21.4063 15.752 22.8712 16.8718 23.8966C16.5696 25.1208 15.7092 26.0471 14.311 26.6539C14.1303 26.7327 13.7702 26.819 13.3532 26.918C11.4472 27.371 7.90079 28.2149 7.01269 31.5288C6.98704 31.6248 7.0006 31.7272 7.0504 31.8133C7.10019 31.8993 7.18214 31.9621 7.27822 31.9878V31.9878Z" fill="#EC008C" stroke="#EC008C" stroke-width="0.5625"/>
</svg>
