<svg width="40" height="40" viewBox="0 0 40 40" fill="none" xmlns="http://www.w3.org/2000/svg">
<circle cx="20" cy="20" r="20" fill="white"/>
<path d="M19.664 15.148H17.954V23.356C17.954 25.624 16.766 26.866 14.606 26.866C12.338 26.866 11.042 25.624 11.042 23.356V15.148H9.332V23.356C9.332 26.776 11.294 28.306 14.606 28.306C17.81 28.306 19.664 26.596 19.664 23.356V15.148ZM31.4482 18.91C31.3402 16.084 29.3422 14.842 26.7142 14.842C24.3742 14.842 22.0522 15.994 22.0522 18.604C22.0522 20.962 24.1222 21.556 26.1742 22.006C28.2262 22.456 30.2782 22.762 30.2782 24.526C30.2782 26.38 28.5682 26.866 27.0202 26.866C25.0762 26.866 23.2762 25.93 23.2762 23.77H21.6562C21.6562 26.902 24.0862 28.306 26.9662 28.306C29.3062 28.306 31.9882 27.208 31.9882 24.472C31.9882 21.952 29.9362 21.232 27.8842 20.764C25.8142 20.296 23.7622 20.062 23.7622 18.478C23.7622 16.804 25.2022 16.282 26.6422 16.282C28.4062 16.282 29.6302 17.074 29.8282 18.91H31.4482Z" fill="#EC008C"/>
</svg>
