<svg width="24" height="24" viewBox="0 0 24 24" fill="none" xmlns="http://www.w3.org/2000/svg">
<path d="M4.46219 17.6929L4.46269 17.6921L11.3221 6.1921L11.3336 6.17282L11.3427 6.1523C11.4271 5.96244 11.4791 5.85593 11.5036 5.81395C11.5331 5.76342 11.5893 5.67614 11.6773 5.5468C11.7438 5.44904 11.7912 5.41764 11.809 5.40921C11.8473 5.39105 11.9073 5.375 12 5.375C12.0976 5.375 12.1673 5.40154 12.2267 5.44908C12.3272 5.52952 12.3916 5.60638 12.4314 5.67671C12.4892 5.77904 12.5637 5.93391 12.6553 6.14772L12.6652 6.17066L12.6779 6.1921L19.5373 17.6921L19.5378 17.6929C19.5977 17.7927 19.625 17.8929 19.625 18C19.625 18.171 19.5683 18.3121 19.4423 18.4415C19.3216 18.5655 19.1821 18.625 19 18.625H5C4.81787 18.625 4.67843 18.5655 4.55774 18.4415C4.43169 18.3121 4.375 18.171 4.375 18C4.375 17.8929 4.40234 17.7927 4.46219 17.6929ZM13.375 10C13.375 9.62285 13.2416 9.28941 12.9761 9.0239C12.7106 8.75839 12.3771 8.625 12 8.625C11.6229 8.625 11.2894 8.75839 11.0239 9.0239C10.7584 9.28941 10.625 9.62285 10.625 10V13C10.625 13.3739 10.7661 13.7027 11.0317 13.9683C11.2973 14.2339 11.6261 14.375 12 14.375C12.3739 14.375 12.7027 14.2339 12.9683 13.9683C13.2339 13.7027 13.375 13.3739 13.375 13V10ZM11.9922 14.625C11.6181 14.625 11.2879 14.7599 11.0239 15.0239C10.7599 15.2879 10.625 15.6181 10.625 15.9922C10.625 16.3692 10.7646 16.7012 11.0317 16.9683C11.2973 17.2339 11.6261 17.375 12 17.375C12.3739 17.375 12.7027 17.2339 12.9683 16.9683C13.2354 16.7012 13.375 16.3692 13.375 15.9922C13.375 15.6149 13.2351 15.2836 12.9647 15.0204C12.6969 14.7596 12.366 14.625 11.9922 14.625Z" stroke="#F79928" stroke-width="0.75"/>
</svg>
