<svg width="24" height="24" viewBox="0 0 24 24" fill="none" xmlns="http://www.w3.org/2000/svg">
<path d="M9.95455 18.4762H13.0455C13.0455 18.8803 12.8826 19.2679 12.5928 19.5537C12.303 19.8395 11.9099 20 11.5 20C11.0901 20 10.697 19.8395 10.4072 19.5537C10.1174 19.2679 9.95455 18.8803 9.95455 18.4762ZM18.4545 16.9524V17.7143H4.54547V16.9524L6.09092 15.4286V10.8571C6.09092 8.49524 7.65956 6.41524 9.95455 5.74476V5.52381C9.95455 5.11967 10.1174 4.73208 10.4072 4.44631C10.697 4.16054 11.0901 4 11.5 4C11.9099 4 12.303 4.16054 12.5928 4.44631C12.8826 4.73208 13.0455 5.11967 13.0455 5.52381V5.74476C15.3405 6.41524 16.9091 8.49524 16.9091 10.8571V15.4286L18.4545 16.9524ZM15.3636 10.8571C15.3636 9.84679 14.9566 8.87783 14.232 8.1634C13.5074 7.44898 12.5247 7.04762 11.5 7.04762C10.4753 7.04762 9.49258 7.44898 8.76801 8.1634C8.04343 8.87783 7.63637 9.84679 7.63637 10.8571V16.1905H15.3636V10.8571ZM17.4886 4.90667L16.3914 5.98857C17.0449 6.62508 17.5638 7.38318 17.918 8.21891C18.2721 9.05465 18.4545 9.95139 18.4545 10.8571H20C20 8.62476 19.1036 6.47619 17.4886 4.90667ZM3.00001 10.8571H4.54547C4.54547 9.02857 5.28729 7.27619 6.60865 5.98857L5.51138 4.90667C4.71383 5.68501 4.08111 6.61186 3.64999 7.63338C3.21886 8.6549 2.99793 9.75071 3.00001 10.8571V10.8571Z" fill="white"/>
</svg>
